<svg id="icons" enable-background="new 0 0 64 64" height="512" viewBox="0 0 64 64" width="512" xmlns="http://www.w3.org/2000/svg"><path d="m62 34.51c.55 0 1 .45 1 1v3.001c0 .55-.45 1-1 1-.55 0-1.45 0-2 0h-2c-.55 0-1.45 0-2 0h-48c-.55 0-1.45 0-2 0h-2c-.55 0-1.45 0-2 0-.55 0-1-.45-1-1v-3.001c0-.55.45-1 1-1h2 2 4 2 8 2 10 2 8 2 8 2z" fill="#ffd2a6"/><path d="m3 39.511h4v18.989h-4z" fill="#f7c292"/><path d="m57 39.511h4v18.989h-4z" fill="#f7c292"/><path d="m34.01 9.499v15h.04 27.95v-15z" fill="#e6e9ed"/><path d="m37 12.498c0-.55.45-1 1-1h20c.55 0 1 .45 1 1v5.001c0 .55-.45 1-1 1h-20c-.55 0-1-.45-1-1z" fill="#5d9cec"/><path d="m60 6.499c1.1 0 2 .899 2 2v1h-27.99v-1c0-1.101.9-2 2-2z" fill="#ccd1d9"/><path d="m21 34.5v.01h-10v-.01l1-5h8z" fill="#ccd1d9"/><path d="m2.05 25.5h2.95 25v2c0 1.09-.9 2-2 2h-8-8-8c-1.1 0-2-.91-2-2v-2z" fill="#e6e9ed"/><path d="m5 7.5v18h-2.95-.05v-16c0-1.101.9-2 2-2z" fill="#545c66"/><path d="m5 7.5h23c1.1 0 2 .899 2 2v16h-25z" fill="#656d78"/><path d="m11 10.998h-3c-.553 0-1-.447-1-1s.447-1 1-1h3c.553 0 1 .447 1 1s-.447 1-1 1z" fill="#5d9cec"/><path d="m11 22.999h-3c-.553 0-1-.447-1-1s.447-1 1-1h3c.553 0 1 .447 1 1s-.447 1-1 1z" fill="#5d9cec"/><path d="m16.005 19.999h-7.004c-.553 0-1-.447-1-1s.447-1 1-1h7.004c.553 0 1 .447 1 1s-.447 1-1 1z" fill="#a0d468"/><path d="m26.015 16.999h-16.013c-.553 0-1-.447-1-1s.447-1 1-1h16.013c.553 0 1 .447 1 1s-.448 1-1 1z" fill="#ed5565"/><path d="m20.009 13.999h-11.008c-.553 0-1-.447-1-1s.447-1 1-1h11.008c.553 0 1 .447 1 1s-.447 1-1 1z" fill="#a0d468"/><path d="m55 15.998h-14c-.553 0-1-.447-1-1s.447-1 1-1h14c.553 0 1 .447 1 1s-.447 1-1 1z" fill="#4a89dc"/><path d="m46.526 22.498h-8.525c-.553 0-1-.447-1-1s.447-1 1-1h8.525c.553 0 1 .447 1 1s-.447 1-1 1z" fill="#ccd1d9"/><path d="m57.999 22.498h-8.474c-.553 0-1-.447-1-1s.447-1 1-1h8.474c.553 0 1 .447 1 1s-.447 1-1 1z" fill="#ccd1d9"/><path d="m53 33.499v.01h-10v-.01l1-5h8z" fill="#545c66"/><path d="m62 24.499v2c0 1.09-.9 2-2 2h-8-8-7.99c-1.1 0-2-.91-2-2v-2h.04z" fill="#656d78"/><path d="m55.023 34.515h-13.986c-.553 0-1-.447-1-1s.447-1 1-1h13.986c.553 0 1 .447 1 1s-.447 1-1 1z" fill="#656d78"/><path d="m60 29.496h-23.994c-1.654 0-3-1.346-3-3v-17.996c0-1.654 1.346-3 3-3h23.994c1.654 0 3 1.346 3 3v17.996c0 1.654-1.346 3-3 3zm-23.994-21.996c-.552 0-1 .448-1 1v17.996c0 .552.448 1 1 1h23.994c.552 0 1-.448 1-1v-17.996c0-.552-.448-1-1-1z" fill="#656d78"/><path d="m48.033 27.996c-.553 0-1.005-.447-1.005-1s.442-1 .994-1h.011c.552 0 1 .447 1 1s-.448 1-1 1z" fill="#545c66"/><path d="m20.997 33.499v.01h-10v-.01l1-5h8z" fill="#ccd1d9"/><g fill="#e6e9ed"><path d="m29.997 24.499v2c0 1.09-.9 2-2 2h-8-8-7.99c-1.1 0-2-.91-2-2v-2h.04z"/><path d="m23.021 34.515h-13.987c-.553 0-1-.447-1-1s.447-1 1-1h13.986c.553 0 1 .447 1 1s-.447 1-.999 1z"/><path d="m27.997 29.496h-23.994c-1.654 0-3-1.346-3-3v-17.996c0-1.654 1.346-3 3-3h23.994c1.654 0 3 1.346 3 3v17.996c0 1.654-1.346 3-3 3zm-23.994-21.996c-.552 0-1 .448-1 1v17.996c0 .552.448 1 1 1h23.994c.552 0 1-.448 1-1v-17.996c0-.552-.448-1-1-1z"/></g><path d="m16.03 27.996c-.553 0-1.005-.447-1.005-1s.442-1 .994-1h.011c.552 0 1 .447 1 1s-.448 1-1 1z" fill="#ccd1d9"/></svg>