<svg height="512pt" viewBox="0 -5 512 512" width="512pt" xmlns="http://www.w3.org/2000/svg"><path d="m504.417969 35.53125h-496.835938c-4.1875 0-7.582031-3.394531-7.582031-7.582031s3.394531-7.582031 7.582031-7.582031h496.835938c4.1875 0 7.582031 3.394531 7.582031 7.582031s-3.394531 7.582031-7.582031 7.582031zm0 0" fill="#d1cfd3"/><path d="m27.832031 431.703125c-4.183593 0-7.578125-3.394531-7.578125-7.582031v-393.792969c0-4.183594 3.394532-7.578125 7.578125-7.578125 4.1875 0 7.582031 3.394531 7.582031 7.578125v393.792969c0 4.1875-3.394531 7.582031-7.582031 7.582031zm0 0" fill="#d1cfd3"/><path d="m485.832031 431.703125c-4.1875 0-7.582031-3.394531-7.582031-7.582031v-393.792969c0-4.183594 3.394531-7.578125 7.582031-7.578125s7.582031 3.394531 7.582031 7.578125v393.792969c0 4.1875-3.394531 7.582031-7.582031 7.582031zm0 0" fill="#d1cfd3"/><path d="m491.507812 501.855469h-468.753906c-8.371094 0-15.160156-6.789063-15.160156-15.164063v-47c0-8.371094 6.789062-15.160156 15.160156-15.160156h468.753906c8.375 0 15.164063 6.789062 15.164063 15.160156v47c0 8.375-6.789063 15.164063-15.164063 15.164063zm0 0" fill="#75737b"/><path d="m491.507812 424.53125h-30.324218c8.375 0 15.160156 6.789062 15.160156 15.160156v47c0 8.375-6.785156 15.164063-15.160156 15.164063h30.324218c8.375 0 15.164063-6.789063 15.164063-15.164063v-47c0-8.371094-6.789063-15.160156-15.164063-15.160156zm0 0" fill="#504e54"/><g fill="#ae582a"><path d="m112.484375 159.660156c-4.1875 0-7.578125-3.394531-7.578125-7.578125v-22.390625c0-4.1875 3.390625-7.582031 7.578125-7.582031s7.582031 3.394531 7.582031 7.582031v22.390625c0 4.183594-3.394531 7.578125-7.582031 7.578125zm0 0"/><path d="m183.574219 159.660156c-4.1875 0-7.582031-3.394531-7.582031-7.578125v-22.390625c0-4.1875 3.394531-7.582031 7.582031-7.582031s7.578125 3.394531 7.578125 7.582031v22.390625c0 4.183594-3.390625 7.578125-7.578125 7.578125zm0 0"/><path d="m330.304688 159.660156c-4.183594 0-7.578126-3.394531-7.578126-7.578125v-22.390625c0-4.1875 3.394532-7.582031 7.578126-7.582031 4.1875 0 7.582031 3.394531 7.582031 7.582031v22.390625c0 4.183594-3.394531 7.578125-7.582031 7.578125zm0 0"/><path d="m401.394531 159.660156c-4.1875 0-7.582031-3.394531-7.582031-7.578125v-22.390625c0-4.1875 3.394531-7.582031 7.582031-7.582031s7.582031 3.394531 7.582031 7.582031v22.390625c0 4.183594-3.394531 7.578125-7.582031 7.578125zm0 0"/></g><path d="m466.738281 115.070312-91.597656-49.265624c-.265625-.140626-.53125-.261719-.804687-.367188v-11.59375c7.59375-2.273438 13.996093-7.765625 17.292968-15.242188 2.964844-6.714843 3.136719-14.1875.480469-21.035156-2.652344-6.84375-7.8125-12.25-14.53125-15.210937-6.71875-2.964844-14.1875-3.136719-21.035156-.480469-6.847657 2.652344-12.25 7.8125-15.214844 14.53125-.554687 1.261719-.734375 2.59375-.59375 3.871094h15.761719c1.378906-1.914063 3.277344-3.394532 5.527344-4.269532 3.070312-1.1875 6.417968-1.113281 9.433593.21875 3.011719 1.328126 5.328125 3.75 6.519531 6.824219 1.1875 3.066407 1.113282 6.417969-.21875 9.433594-1.960937 4.441406-6.367187 7.328125-11.226562 7.355469-4.1875.019531-7.566406 3.429687-7.546875 7.617187.003906.5625.074219 1.109375.191406 1.632813v17.246094l-90.609375 48.730468c-3.6875 1.984375-4.859375 6.476563-3.085937 10.269532 2.578125 5.511718 11.863281 4.871093 13.445312 4.871093h181.476563c1.324218 0 7.25-.078125 9.421875-4.871093 1.730469-3.8125.601562-8.285157-3.085938-10.265626zm-166.117187-.027343 66.722656-35.882813c.105469-.058594.203125-.125.308594-.1875.101562.0625.199218.128906.304687.1875l66.722657 35.882813zm0 0" fill="#d17740"/><path d="m249.117188 115.070312-91.597657-49.265624c-.265625-.140626-.53125-.261719-.804687-.367188v-11.59375c7.59375-2.273438 13.996094-7.765625 17.292968-15.242188 2.964844-6.714843 3.136719-14.1875.480469-21.035156-2.652343-6.84375-7.8125-12.25-14.53125-15.210937-6.71875-2.964844-14.1875-3.136719-21.035156-.480469-6.847656 2.652344-12.25 7.8125-15.214844 14.53125-.652343 1.480469-.789062 3.054688-.496093 4.53125h15.226562c1.402344-2.230469 3.460938-3.957031 5.964844-4.929688 3.070312-1.1875 6.417968-1.113281 9.433594.21875 3.011718 1.328126 5.328124 3.75 6.519531 6.824219 1.1875 3.066407 1.113281 6.417969-.21875 9.433594-1.960938 4.441406-6.367188 7.328125-11.230469 7.355469-4.183594.019531-7.5625 3.429687-7.542969 7.617187.003907.5625.074219 1.109375.191407 1.632813v17.246094l-90.609376 48.730468c-3.6875 1.984375-4.859374 6.476563-3.085937 10.269532 2.578125 5.511718 11.863281 4.871093 13.445313 4.871093h181.476562c1.324219 0 7.25-.078125 9.421875-4.871093 1.730469-3.8125.601563-8.285157-3.085937-10.265626zm-166.117188-.027343 66.722656-35.882813c.105469-.058594.203125-.125.308594-.1875.101562.0625.199219.128906.304688.1875l66.722656 35.882813zm0 0" fill="#d17740"/><path d="m220.066406 373.933594h-148.605468c-9.730469 0-17.246094-8.554688-15.992188-18.207032l14.945312-145.457031c0-41.613281 33.734376-75.347656 75.347657-75.347656s75.351562 33.734375 75.351562 75.347656l14.945313 145.457031c1.253906 9.652344-6.261719 18.207032-15.992188 18.207032zm0 0" fill="#f3db77"/><path d="m236.058594 355.726562-14.949219-145.457031c0-41.613281-33.734375-75.347656-75.347656-75.347656-5.191407 0-10.261719.527344-15.160157 1.527344 34.34375 7.015625 60.183594 37.398437 60.183594 73.820312l14.949219 145.457031c1.253906 9.648438-6.261719 18.207032-15.996094 18.207032h30.324219c9.734375 0 17.25-8.554688 15.996094-18.207032zm0 0" fill="#f9cd45"/><path d="m99.527344 361.898438c-4.183594 0-7.578125-3.394532-7.578125-7.582032v-30.578125c0-4.183593 3.394531-7.578125 7.578125-7.578125 4.1875 0 7.582031 3.394532 7.582031 7.578125v30.578125c0 4.1875-3.394531 7.582032-7.582031 7.582032zm0 0" fill="#f8b53c"/><path d="m144.300781 361.898438c-4.1875 0-7.582031-3.394532-7.582031-7.582032v-30.578125c0-4.183593 3.394531-7.578125 7.582031-7.578125s7.582031 3.394532 7.582031 7.578125v30.578125c0 4.1875-3.394531 7.582032-7.582031 7.582032zm0 0" fill="#f8b53c"/><path d="m189.074219 361.898438c-4.1875 0-7.582031-3.394532-7.582031-7.582032v-30.578125c0-4.183593 3.394531-7.578125 7.582031-7.578125 4.183593 0 7.578125 3.394532 7.578125 7.578125v30.578125c0 4.1875-3.394532 7.582032-7.578125 7.582032zm0 0" fill="#f8b53c"/><path d="m432.605469 177.390625c-.640625-17.210937-14.464844-31.421875-31.652344-32.496094-13.554687-.847656-25.519531 6.292969-31.660156 17.15625-6.140625-10.863281-18.105469-18.003906-31.660157-17.15625-17.1875 1.074219-31.011718 15.285157-31.652343 32.496094-.46875 12.601563 5.964843 23.734375 15.808593 29.941406v73.367188c0 3.636719 2.949219 6.582031 6.582032 6.582031h81.84375c3.632812 0 6.578125-2.945312 6.578125-6.582031v-73.367188c9.847656-6.207031 16.277343-17.339843 15.8125-29.941406zm0 0" fill="#f3db77"/><path d="m401.078125 144.902344c-6.304687-.417969-12.265625.898437-17.464844 3.511718 11.082031 5.5625 18.691407 17.019532 18.691407 30.265626 0 12.070312-6.324219 22.65625-15.835938 28.652343v79.949219h23.746094c3.632812 0 6.578125-2.945312 6.578125-6.582031v-73.367188c10.222656-6.441406 16.765625-18.195312 15.726562-31.390625-1.304687-16.589844-14.839843-29.933594-31.441406-31.039062zm0 0" fill="#f9cd45"/><path d="m321.789062 260.867188v19.832031c0 3.632812 2.949219 6.582031 6.582032 6.582031h81.84375c3.632812 0 6.578125-2.949219 6.578125-6.582031v-19.832031zm0 0" fill="#529edf"/><path d="m386.46875 260.867188v19.832031c0 3.632812-2.945312 6.582031-6.582031 6.582031h30.328125c3.632812 0 6.578125-2.949219 6.578125-6.582031v-19.832031zm0 0" fill="#3e5c95"/></svg>