<svg height="512pt" viewBox="0 0 512 512" width="512pt" xmlns="http://www.w3.org/2000/svg"><path d="m469.332031 179.199219v153.601562h-426.664062v-153.601562s76.796875 0 102.398437-17.066407c11.179688-7.507812 22.785156-13.3125 34.132813-17.832031v51.96875h153.601562v-51.96875c11.347657 4.519531 22.953125 10.324219 34.132813 17.832031 25.601562 17.066407 102.398437 17.066407 102.398437 17.066407zm0 0" fill="#a38563"/><path d="m8.535156 332.800781h494.929688v68.265625h-494.929688zm0 0" fill="#d4c8b8"/><path d="m76.800781 230.398438h153.601563v68.269531h-153.601563zm0 0" fill="#e6e6e6"/><path d="m281.601562 230.398438h153.597657v68.269531h-153.597657zm0 0" fill="#e6e6e6"/><path d="m93.867188 230.398438h136.53125v51.199218h-136.53125zm0 0" fill="#f2f2f2"/><path d="m298.667969 230.398438h136.53125v51.199218h-136.53125zm0 0" fill="#f2f2f2"/><path d="m8.535156 162.132812h34.132813v170.667969h-34.132813zm0 0" fill="#884d00"/><path d="m42.667969 110.933594c0 9.425781-7.644531 17.066406-17.066407 17.066406-9.425781 0-17.066406-7.640625-17.066406-17.066406 0-9.425782 7.640625-17.066406 17.066406-17.066406 9.421876 0 17.066407 7.640624 17.066407 17.066406zm0 0" fill="#ffd422"/><path d="m17.066406 128h17.066406v34.132812h-17.066406zm0 0" fill="#e7b900"/><path d="m8.535156 469.332031h34.132813v34.132813h-34.132813zm0 0" fill="#884d00"/><path d="m469.332031 469.332031h34.132813v34.132813h-34.132813zm0 0" fill="#884d00"/><path d="m8.535156 401.066406h494.929688v68.265625h-494.929688zm0 0" fill="#693b00"/><path d="m469.332031 162.132812h34.132813v170.667969h-34.132813zm0 0" fill="#884d00"/><path d="m25.601562 162.132812h17.066407v170.667969h-17.066407zm0 0" fill="#693b00"/><path d="m486.398438 162.132812h17.066406v170.667969h-17.066406zm0 0" fill="#693b00"/><path d="m503.464844 110.933594c0 9.425781-7.640625 17.066406-17.066406 17.066406-9.421876 0-17.066407-7.640625-17.066407-17.066406 0-9.425782 7.644531-17.066406 17.066407-17.066406 9.425781 0 17.066406 7.640624 17.066406 17.066406zm0 0" fill="#ffd422"/><path d="m477.867188 128h17.066406v34.132812h-17.066406zm0 0" fill="#e7b900"/><path d="m273.066406 25.601562c0 9.421876-7.640625 17.066407-17.066406 17.066407s-17.066406-7.644531-17.066406-17.066407c0-9.425781 7.640625-17.066406 17.066406-17.066406s17.066406 7.640625 17.066406 17.066406zm0 0" fill="#e7b900"/><path d="m179.199219 42.667969c0 9.425781-7.640625 17.066406-17.066407 17.066406-9.425781 0-17.066406-7.640625-17.066406-17.066406s7.640625-17.066407 17.066406-17.066407c9.425782 0 17.066407 7.640626 17.066407 17.066407zm0 0" fill="#e7b900"/><path d="m366.933594 42.667969c0 9.425781-7.640625 17.066406-17.066406 17.066406-9.425782 0-17.066407-7.640625-17.066407-17.066406s7.640625-17.066407 17.066407-17.066407c9.425781 0 17.066406 7.640626 17.066406 17.066407zm0 0" fill="#e7b900"/><path d="m349.867188 59.734375-17.066407 68.265625v68.269531h-153.601562v-68.269531l-17.066407-68.265625h17.066407l6.058593 7.082031.683594.855469c16.808594 19.539063 47.359375 13.90625 57.171875-8.277344.9375-2.050781 1.621094-4.269531 2.132813-6.574219l2.21875-10.152343h17.066406l2.21875 10.152343c6.144531 27.480469 40.960938 36.183594 59.308594 14.851563l6.742187-7.9375zm0 0" fill="#e7b900"/><path d="m349.867188 59.734375-17.066407 68.265625v51.199219h-136.535156v-68.265625l-11.007813-44.117188.683594.855469c16.808594 19.539063 47.359375 13.90625 57.171875-8.277344 7.253907-3.160156 13.398438-8.875 16.894531-16.726562h4.523438l2.21875 10.15625c6.144531 27.476562 40.960938 36.179687 59.308594 14.847656l6.742187-7.9375zm0 0" fill="#ffd422"/><path d="m281.597656 136.53125c0 14.140625-11.460937 25.601562-25.597656 25.601562-14.140625 0-25.601562-11.460937-25.601562-25.601562 0-14.136719 11.460937-25.597656 25.601562-25.597656 14.136719 0 25.597656 11.460937 25.597656 25.597656zm0 0" fill="#ff0c38"/><path d="m25.601562 469.332031h17.066407v34.132813h-17.066407zm0 0" fill="#693b00"/><path d="m486.398438 469.332031h17.066406v34.132813h-17.066406zm0 0" fill="#693b00"/><path d="m25.601562 349.867188h460.796876v51.199218h-460.796876zm0 0" fill="#ebe5dd"/><g fill="#fff"><path d="m68.265625 230.398438h-17.066406v-25.597657c0-4.714843 3.820312-8.53125 8.527343-8.535156.332032 0 33.097657-.109375 57.039063-8.09375 22.753906-7.582031 30.808594-15.019531 30.886719-15.09375l11.980468 12.15625c-1.015624 1.019531-10.730468 10.214844-37.46875 19.128906-18.914062 6.304688-41.753906 8.179688-53.898437 8.738281zm0 0"/><path d="m51.199219 247.464844h17.066406v17.066406h-17.066406zm0 0"/><path d="m375.46875 426.667969h102.398438v17.066406h-102.398438zm0 0"/><path d="m341.332031 426.667969h17.066407v17.066406h-17.066407zm0 0"/><path d="m68.265625 230.398438h-17.066406v-25.597657c0-4.714843 3.820312-8.53125 8.527343-8.535156.332032 0 33.097657-.109375 57.039063-8.09375 22.753906-7.582031 30.808594-15.019531 30.886719-15.09375l11.980468 12.15625c-1.015624 1.019531-10.730468 10.214844-37.46875 19.128906-18.914062 6.304688-41.753906 8.179688-53.898437 8.738281zm0 0"/><path d="m51.199219 247.464844h17.066406v17.066406h-17.066406zm0 0"/><path d="m375.46875 426.667969h102.398438v17.066406h-102.398438zm0 0"/><path d="m341.332031 426.667969h17.066407v17.066406h-17.066407zm0 0"/></g><path d="m76.800781 307.199219h153.597657c4.714843 0 8.535156-3.820313 8.535156-8.53125v-68.269531c0-4.710938-3.820313-8.53125-8.535156-8.53125h-153.597657c-4.714843 0-8.535156 3.820312-8.535156 8.53125v68.269531c0 4.710937 3.820313 8.53125 8.535156 8.53125zm8.53125-68.265625h136.535157v51.199218h-136.535157zm0 0"/><path d="m281.601562 307.199219h153.597657c4.714843 0 8.535156-3.820313 8.535156-8.53125v-68.269531c0-4.710938-3.820313-8.53125-8.535156-8.53125h-153.597657c-4.714843 0-8.535156 3.820312-8.535156 8.53125v68.269531c0 4.710937 3.820313 8.53125 8.535156 8.53125zm8.53125-68.265625h136.535157v51.199218h-136.535157zm0 0"/><path d="m503.464844 153.601562h-8.53125v-18.640624c9.910156-3.535157 17.066406-12.917969 17.066406-24.027344 0-14.117188-11.484375-25.601563-25.601562-25.601563-14.113282 0-25.597657 11.484375-25.597657 25.601563 0 11.109375 7.15625 20.492187 17.066407 24.027344v18.636718h-8.535157c-4.710937 0-8.53125 3.824219-8.53125 8.535156v8.402344c-24.953125-.660156-72.125-4.160156-89.109375-15.484375-9.234375-6.203125-19.523437-11.53125-30.359375-16.21875v-9.78125l15.46875-61.859375c10.734375-3.042968 18.667969-12.828125 18.667969-24.523437 0-14.117188-11.484375-25.601563-25.601562-25.601563-14.117188 0-25.601563 11.484375-25.601563 25.601563 0 3.984375.996094 7.714843 2.628906 11.082031-.179687.179688-.429687.261719-.597656.457031l-6.707031 7.902344c-6.46875 7.515625-16.066406 10.554687-25.683594 8.164063-9.621094-2.40625-16.660156-9.628907-18.816406-19.273438l-1.503906-6.886719c4.914062-4.667969 8.015624-11.21875 8.015624-18.511719 0-14.117187-11.484374-25.601562-25.601562-25.601562s-25.601562 11.484375-25.601562 25.601562c0 7.292969 3.105468 13.84375 8.015624 18.511719l-1.492187 6.84375c-2.167969 9.6875-9.203125 16.910157-18.824219 19.316407-9.589844 2.410156-19.214844-.644532-25.652344-8.128907l-6.742187-7.9375c-.164063-.195312-.417969-.277343-.597656-.453125 1.632812-3.371094 2.628906-7.101562 2.628906-11.085937 0-14.117188-11.484375-25.601563-25.601563-25.601563-14.113281 0-25.597656 11.484375-25.597656 25.601563 0 11.695312 7.929688 21.480469 18.667969 24.523437l15.464844 61.859375v9.785157c-10.832031 4.683593-21.121094 10.007812-30.332031 16.199218-17.007813 11.335938-64.183594 14.84375-89.136719 15.503906v-8.40625c0-4.710937-3.820313-8.53125-8.53125-8.53125h-8.535157v-18.640624c9.914063-3.535157 17.066407-12.917969 17.066407-24.027344 0-14.117188-11.480469-25.601563-25.597657-25.601563-14.117187 0-25.601562 11.484375-25.601562 25.601563 0 11.109375 7.15625 20.492187 17.066406 24.027344v18.636718h-8.53125c-4.714844 0-8.535156 3.824219-8.535156 8.535156v341.332032c0 4.714844 3.820312 8.535156 8.535156 8.535156h34.132813c4.710937 0 8.53125-3.820312 8.53125-8.535156v-25.597656h409.601562v25.597656c0 4.714844 3.820313 8.535156 8.53125 8.535156h34.132813c4.714844 0 8.535156-3.820312 8.535156-8.535156v-341.332032c0-4.710937-3.820312-8.53125-8.535156-8.53125zm-17.066406-51.203124c4.707031 0 8.535156 3.832031 8.535156 8.535156s-3.828125 8.53125-8.535156 8.53125c-4.703126 0-8.53125-3.828125-8.53125-8.53125s3.828124-8.535156 8.53125-8.535156zm-460.796876 0c4.703126 0 8.53125 3.832031 8.53125 8.535156s-3.828124 8.53125-8.53125 8.53125c-4.707031 0-8.535156-3.828125-8.535156-8.53125s3.828125-8.535156 8.535156-8.535156zm17.066407 358.402343h-25.601563v-51.199219h477.867188v51.199219zm0-119.46875h452.265625v51.199219h-477.867188v-51.199219zm435.199219-170.664062h17.066406v153.597656h-17.066406zm-128-136.535157c4.703124 0 8.53125 3.828126 8.53125 8.535157 0 4.703125-3.828126 8.53125-8.53125 8.53125-4.703126 0-8.535157-3.828125-8.535157-8.53125 0-4.707031 3.832031-8.535157 8.535157-8.535157zm-93.867188-17.066406c4.703125 0 8.53125 3.828125 8.53125 8.535156 0 4.703126-3.828125 8.53125-8.53125 8.53125s-8.535156-3.828124-8.535156-8.53125c0-4.707031 3.832031-8.535156 8.535156-8.535156zm-33.761719 69.761719c15.777344-3.945313 27.785157-16.261719 31.347657-32.1875l.75-3.441406h3.328124l.757813 3.484375c3.554687 15.882812 15.5625 28.199218 31.339844 32.144531 15.777343 3.941406 32.167969-1.261719 42.800781-13.632813l4.1875-4.929687h2.1875l-14.414062 57.660156c-.167969.679688-.257813 1.375-.257813 2.070313v59.734375h-136.53125v-59.734375c0-.695313-.089844-1.390625-.253906-2.070313l-14.417969-57.660156h2.1875l4.222656 4.964844c10.601563 12.335937 26.988282 17.542969 42.765625 13.597656zm-60.105469-52.695313c4.703126 0 8.535157 3.828126 8.535157 8.535157 0 4.703125-3.832031 8.53125-8.535157 8.53125-4.703124 0-8.53125-3.828125-8.53125-8.53125 0-4.707031 3.828126-8.535157 8.53125-8.535157zm-12.308593 135.085938c6.472656-4.347656 13.445312-8.320312 20.84375-11.867188v38.917969c0 4.710938 3.820312 8.53125 8.53125 8.53125h153.601562c4.710938 0 8.53125-3.820312 8.53125-8.53125v-38.917969c7.394531 3.554688 14.378907 7.523438 20.867188 11.882813 22.59375 15.0625 76.824219 17.871094 98.597656 18.386719v136.644531h-409.597656v-136.644531c21.78125-.515625 76.007812-3.324219 98.625-18.402344zm-132.757813 1.449219h17.066406v153.597656h-17.066406zm17.066406 324.265625h-17.066406v-17.066406h17.066406zm460.800782 0h-17.066406v-17.066406h17.066406zm0 0"/><path d="m256 170.667969c18.820312 0 34.132812-15.3125 34.132812-34.132813 0-18.820312-15.3125-34.132812-34.132812-34.132812s-34.132812 15.3125-34.132812 34.132812c0 18.820313 15.3125 34.132813 34.132812 34.132813zm0-51.203125c9.410156 0 17.066406 7.65625 17.066406 17.066406 0 9.414062-7.65625 17.066406-17.066406 17.066406-9.414062 0-17.066406-7.652344-17.066406-17.066406 0-9.410156 7.65625-17.066406 17.066406-17.066406zm0 0"/></svg>