<svg height="512pt" viewBox="-16 0 512 512" width="512pt" xmlns="http://www.w3.org/2000/svg"><g fill="#25d9f8"><path d="m300 286h30v75h-30zm0 0"/><path d="m300 391h30v91h-30zm0 0"/><path d="m240 331h30v60h-30zm0 0"/></g><path d="m315 391h15v91h-15zm0 0" fill="#00c0f1"/><path d="m315 286h15v75h-15zm0 0" fill="#00c0f1"/><path d="m360 331h30v60h-30zm0 0" fill="#00c0f1"/><path d="m240 421h30v91h-30zm0 0" fill="#25d9f8"/><path d="m360 421h30v91h-30zm0 0" fill="#00c0f1"/><path d="m375 150h-15v-15c0-35.601562-17.820312-67.128906-45-86.109375-17.019531-11.910156-37.71875-18.890625-60-18.890625h-195v90h195c8.28125 0 15 6.71875 15 15v15h-15c-41.351562 0-75 33.648438-75 75v15h270v-15c0-41.351562-33.648438-75-75-75zm0 0" fill="#596c76"/><path d="m0 153v-153l90 22.5v108zm0 0" fill="#bbdcff"/><path d="m450 225v15h-135v-191.109375c27.179688 18.980469 45 50.507813 45 86.109375v15h15c41.351562 0 75 33.648438 75 75zm0 0" fill="#465a61"/><path d="m480 301h-330v-45c0-24.8125 20.1875-46 45-46h240c24.8125 0 45 21.1875 45 46zm0 0" fill="#e0f4ff"/><path d="m480 278.5v-22.5c0-12.40625-5.046875-24.65625-13.195312-32.804688-8.148438-8.148437-19.398438-13.195312-31.804688-13.195312h-120v91h165zm0 0" fill="#bbdcff"/></svg>