<svg height="512pt" viewBox="-56 0 512 512" width="512pt" xmlns="http://www.w3.org/2000/svg"><path d="m52.066406 0h295.050782c4.792968 0 8.679687 3.886719 8.679687 8.679688v494.640624h-312.40625v-494.640624c0-4.792969 3.882813-8.679688 8.675781-8.679688zm0 0" fill="#af8066"/><path d="m355.796875 8.679688v494.640624h-156.203125v-503.320312h147.523438c4.792968 0 8.679687 3.886719 8.679687 8.679688zm0 0" fill="#7f5b53"/><path d="m199.59375 182.238281v277.695313h-104.136719c-4.792969 0-8.675781-3.886719-8.675781-8.679688v-260.339844c0-4.792968 3.882812-8.675781 8.675781-8.675781zm0 0" fill="#7f5b53"/><path d="m312.40625 190.914062v260.339844c0 4.792969-3.882812 8.679688-8.675781 8.679688h-104.136719v-277.695313h104.136719c4.792969 0 8.675781 3.882813 8.675781 8.675781zm0 0" fill="#59474e"/><path d="m286.371094 225.628906h17.359375c4.792969 0 8.675781 3.882813 8.675781 8.675782v52.066406c0 4.792968-3.882812 8.679687-8.675781 8.679687h-17.359375c-4.789063 0-8.675782-3.886719-8.675782-8.679687v-52.066406c0-4.792969 3.886719-8.675782 8.675782-8.675782zm0 0" fill="#bdc3c7"/><path d="m199.59375 34.710938v104.136718h-103.695312c-2.449219-.011718-4.785157-1.050781-6.433594-2.867187-1.652344-1.8125-2.464844-4.238281-2.242188-6.679688 2.101563-23.371093 12.074219-45.339843 28.28125-62.308593.605469-.605469 1.128906-1.214844 1.734375-1.820313 3.546875-3.476563 7.285157-6.75 11.195313-9.804687 18.0625-13.429688 39.976562-20.671876 62.480468-20.65625zm0 0" fill="#67b9cc"/><path d="m303.285156 138.847656h-103.691406v-104.136718h8.675781c22.507813-.015626 44.421875 7.226562 62.484375 20.65625 4.589844 3.550781 8.910156 7.4375 12.929688 11.625 16.214844 16.96875 26.191406 38.933593 28.296875 62.308593.222656 2.445313-.59375 4.871094-2.246094 6.6875-1.652344 1.816407-3.992187 2.851563-6.449219 2.859375zm0 0" fill="#2fa8cc"/><path d="m283.683594 66.992188c0 .089843 0 .089843-.085938.175781l-71.683594 71.679687h-24.644531l-71.679687-71.679687c-.085938-.085938-.085938-.085938-.085938-.175781.605469-.605469 1.128906-1.214844 1.734375-1.820313 3.546875-3.476563 7.285157-6.75 11.195313-9.804687l62.480468 62.566406 8.679688 8.679687 8.675781-8.679687 62.484375-62.566406c4.589844 3.550781 8.910156 7.4375 12.929688 11.625zm0 0" fill="#35495e"/><path d="m190.914062 34.710938h17.355469v104.136718h-17.355469zm0 0" fill="#35495e"/><path d="m199.59375 433.898438c-4.792969 0-8.679688-3.886719-8.679688-8.679688v-208.269531c0-4.792969 3.886719-8.679688 8.679688-8.679688s8.675781 3.886719 8.675781 8.679688v208.269531c0 4.792969-3.882812 8.679688-8.675781 8.679688zm0 0" fill="#af8066"/><path d="m390.507812 512h-381.828124c-4.792969 0-8.679688-3.886719-8.679688-8.679688 0-4.789062 3.886719-8.675781 8.679688-8.675781h381.828124c4.792969 0 8.679688 3.886719 8.679688 8.675781 0 4.792969-3.886719 8.679688-8.679688 8.679688zm0 0" fill="#95a5a5"/></svg>