<svg height="512pt" viewBox="0 0 512 512" width="512pt" xmlns="http://www.w3.org/2000/svg"><path d="m503.171875 0h-123.585937c-4.875 0-8.828126 3.953125-8.828126 8.828125v220.6875c0-4.875-3.953124-8.824219-8.828124-8.824219h-123.585938c-4.875 0-8.828125 3.949219-8.828125 8.824219v8.828125c0-9.75-7.902344-17.652344-17.652344-17.652344h-194.207031c-9.75 0-17.65625 7.902344-17.65625 17.652344v256c.0273438 9.738281 7.917969 17.628906 17.65625 17.65625h194.207031c9.738281-.027344 17.625-7.917969 17.652344-17.65625v8.828125c0 4.875 3.953125 8.828125 8.828125 8.828125h123.585938c4.875 0 8.828124-3.953125 8.828124-8.828125 0 4.875 3.953126 8.828125 8.828126 8.828125h123.585937c4.875 0 8.828125-3.953125 8.828125-8.828125v-494.34375c0-4.875-3.953125-8.828125-8.828125-8.828125zm0 0" fill="#35495e"/><path d="m229.515625 273.65625v220.6875c-.027344 9.738281-7.914063 17.628906-17.652344 17.65625h-194.207031c-9.738281-.027344-17.6289062-7.917969-17.65625-17.65625v-220.6875zm0 0" fill="#547580"/><path d="m194.207031 326.621094v88.277344c-.027343 9.738281-7.917969 17.625-17.65625 17.652343h-123.585937c-8.445313-.015625-15.695313-6.007812-17.300782-14.300781-.253906-1.097656-.371093-2.226562-.355468-3.351562v-88.277344c.03125-9.738282 7.917968-17.625 17.65625-17.65625h123.585937c9.738281.03125 17.628907 7.917968 17.65625 17.65625zm0 0" fill="#67b9cc"/><path d="m194.207031 375.261719v39.636719c-.027343 9.738281-7.917969 17.625-17.65625 17.652343h-123.585937c-8.445313-.015625-15.695313-6.007812-17.300782-14.300781 22.15625-28.335938 68.589844-62.5 158.542969-42.988281zm0 0" fill="#2fa8cc"/><path d="m17.65625 220.691406h194.207031c9.75 0 17.652344 7.902344 17.652344 17.652344v35.3125h-229.515625v-35.3125c0-9.75 7.90625-17.652344 17.65625-17.652344zm0 0" fill="#95a5a5"/><path d="m52.964844 247.171875c0 4.875-3.953125 8.828125-8.828125 8.828125s-8.828125-3.953125-8.828125-8.828125 3.953125-8.828125 8.828125-8.828125 8.828125 3.953125 8.828125 8.828125zm0 0" fill="#7f8c8d"/><path d="m88.277344 247.171875c0 4.875-3.953125 8.828125-8.828125 8.828125s-8.828125-3.953125-8.828125-8.828125 3.953125-8.828125 8.828125-8.828125 8.828125 3.953125 8.828125 8.828125zm0 0" fill="#7f8c8d"/><path d="m158.898438 247.171875c0 4.875-3.953126 8.828125-8.828126 8.828125s-8.828124-3.953125-8.828124-8.828125 3.953124-8.828125 8.828124-8.828125 8.828126 3.953125 8.828126 8.828125zm0 0" fill="#7f8c8d"/><path d="m194.207031 247.171875c0 4.875-3.953125 8.828125-8.828125 8.828125s-8.828125-3.953125-8.828125-8.828125 3.953125-8.828125 8.828125-8.828125 8.828125 3.953125 8.828125 8.828125zm0 0" fill="#7f8c8d"/><path d="m52.964844 467.863281v44.136719h-17.65625v-44.136719c0-4.875 3.953125-8.828125 8.828125-8.828125s8.828125 3.953125 8.828125 8.828125zm0 0" fill="#3f5c6c"/><path d="m88.277344 467.863281v44.136719h-17.65625v-44.136719c0-4.875 3.953125-8.828125 8.828125-8.828125s8.828125 3.953125 8.828125 8.828125zm0 0" fill="#3f5c6c"/><path d="m123.585938 467.863281v44.136719h-17.65625v-44.136719c0-4.875 3.953124-8.828125 8.828124-8.828125s8.828126 3.953125 8.828126 8.828125zm0 0" fill="#3f5c6c"/><path d="m158.898438 467.863281v44.136719h-17.65625v-44.136719c0-4.875 3.953124-8.828125 8.828124-8.828125s8.828126 3.953125 8.828126 8.828125zm0 0" fill="#3f5c6c"/><path d="m194.207031 467.863281v44.136719h-17.65625v-44.136719c0-4.875 3.953125-8.828125 8.828125-8.828125s8.828125 3.953125 8.828125 8.828125zm0 0" fill="#3f5c6c"/><path d="m79.449219 0h70.621093c4.875 0 8.828126 3.953125 8.828126 8.828125v26.480469h-88.277344v-26.480469c0-4.875 3.953125-8.828125 8.828125-8.828125zm0 0" fill="#7f8c8d"/><path d="m158.898438 35.308594h-88.277344l-52.738282 45.199218c-1.402343 1.203126-1.910156 3.152344-1.269531 4.886719.644531 1.734375 2.300781 2.886719 4.148438 2.882813h188.027343c1.851563.003906 3.507813-1.148438 4.148438-2.882813.644531-1.734375.136719-3.683593-1.269531-4.886719zm0 0" fill="#95a5a5"/><path d="m379.585938 0h123.585937c4.875 0 8.828125 3.953125 8.828125 8.828125v494.34375c0 4.875-3.953125 8.828125-8.828125 8.828125h-123.585937c-4.875 0-8.828126-3.953125-8.828126-8.828125v-494.34375c0-4.875 3.953126-8.828125 8.828126-8.828125zm0 0" fill="#2c3e50"/><path d="m238.34375 220.691406h123.585938c4.875 0 8.828124 3.949219 8.828124 8.824219v273.65625c0 4.875-3.953124 8.828125-8.828124 8.828125h-123.585938c-4.875 0-8.828125-3.953125-8.828125-8.828125v-273.65625c0-4.875 3.953125-8.824219 8.828125-8.824219zm0 0" fill="#35495e"/><g fill="#3f5c6c"><path d="m335.449219 406.070312c-4.875 0-8.828125-3.953124-8.828125-8.828124v-17.65625c0-4.875 3.953125-8.828126 8.828125-8.828126s8.828125 3.953126 8.828125 8.828126v17.65625c0 4.875-3.953125 8.828124-8.828125 8.828124zm0 0"/><path d="m300.136719 300.136719c-4.875 0-8.828125-3.949219-8.828125-8.828125v-17.652344c0-4.875 3.953125-8.828125 8.828125-8.828125s8.828125 3.953125 8.828125 8.828125v17.652344c0 4.878906-3.953125 8.828125-8.828125 8.828125zm0 0"/><path d="m476.691406 247.171875c-4.878906 0-8.828125-3.953125-8.828125-8.828125v-17.652344c0-4.878906 3.949219-8.828125 8.828125-8.828125 4.875 0 8.824219 3.949219 8.824219 8.828125v17.652344c0 4.875-3.949219 8.828125-8.824219 8.828125zm0 0"/><path d="m476.691406 44.136719h-70.621094c-4.875 0-8.828124-3.949219-8.828124-8.828125 0-4.875 3.953124-8.824219 8.828124-8.824219h70.621094c4.875 0 8.824219 3.949219 8.824219 8.824219 0 4.878906-3.949219 8.828125-8.824219 8.828125zm0 0"/><path d="m476.691406 485.515625h-70.621094c-4.875 0-8.828124-3.949219-8.828124-8.824219 0-4.878906 3.953124-8.828125 8.828124-8.828125h70.621094c4.875 0 8.824219 3.949219 8.824219 8.828125 0 4.875-3.949219 8.824219-8.824219 8.824219zm0 0"/><path d="m335.449219 485.515625h-70.621094c-4.875 0-8.828125-3.949219-8.828125-8.824219 0-4.878906 3.953125-8.828125 8.828125-8.828125h70.621094c4.875 0 8.828125 3.949219 8.828125 8.828125 0 4.875-3.953125 8.824219-8.828125 8.824219zm0 0"/><path d="m335.449219 335.449219h-70.621094c-4.875 0-8.828125-3.953125-8.828125-8.828125s3.953125-8.828125 8.828125-8.828125h70.621094c4.875 0 8.828125 3.953125 8.828125 8.828125s-3.953125 8.828125-8.828125 8.828125zm0 0"/></g><path d="m70.621094 361.929688c-4.875 0-8.828125-3.949219-8.828125-8.828126v-8.824218c0-4.875 3.953125-8.828125 8.828125-8.828125s8.828125 3.953125 8.828125 8.828125v8.824218c0 4.878907-3.953125 8.828126-8.828125 8.828126zm0 0" fill="#35495e"/><path d="m70.621094 406.070312c-4.875 0-8.828125-3.953124-8.828125-8.828124v-8.828126c0-4.875 3.953125-8.828124 8.828125-8.828124s8.828125 3.953124 8.828125 8.828124v8.828126c0 4.875-3.953125 8.828124-8.828125 8.828124zm0 0" fill="#35495e"/><path d="m229.515625 282.484375h141.242187v17.652344h-141.242187zm0 0" fill="#2c3e50"/></svg>