<svg height="512pt" viewBox="0 0 512 512" width="512pt" xmlns="http://www.w3.org/2000/svg"><path d="m425.359375 0h-338.71875c-47.851563 0-86.640625 38.789062-86.640625 86.640625v338.71875c0 47.851563 38.789062 86.640625 86.640625 86.640625h338.71875c47.851563 0 86.640625-38.789062 86.640625-86.640625v-338.71875c0-47.851563-38.789062-86.640625-86.640625-86.640625zm0 0" fill="#1a94ba"/><path d="m86.640625 490.058594c-35.671875 0-64.699219-29.027344-64.699219-64.699219v-338.71875c0-35.671875 29.027344-64.699219 64.699219-64.699219h338.71875c35.671875 0 64.699219 29.027344 64.699219 64.699219v338.71875c0 35.671875-29.027344 64.699219-64.699219 64.699219zm0 0" fill="#6dccf2"/><path d="m366.90625 373.125c0 51.914062-11.355469 76.257812-25.363281 76.257812-14.003907 0-25.359375-24.34375-25.359375-76.257812 0-51.910156 11.355468-111.730469 25.359375-111.730469 14.007812 0 25.363281 59.820313 25.363281 111.730469zm0 0" fill="#65687f"/><path d="m341.542969 449.386719c-14.011719 0-25.359375-24.34375-25.359375-76.253907 0-51.921874 11.347656-111.742187 25.359375-111.742187-4.652344 0-8.421875 59.820313-8.421875 111.742187 0 51.910157 3.769531 76.253907 8.421875 76.253907zm0 0" fill="#3a3d51"/><path d="m215.15625 373.125c0 51.914062-11.355469 76.257812-25.363281 76.257812-14.003907 0-25.359375-24.34375-25.359375-76.257812 0-51.910156 11.355468-111.730469 25.359375-111.730469 14.007812 0 25.363281 59.820313 25.363281 111.730469zm0 0" fill="#65687f"/><path d="m399.457031 83.851562v127.457032c0 31.941406-25.988281 57.917968-57.917969 57.917968-31.933593 0-57.917968-25.976562-57.917968-57.917968v-127.457032c0-4.324218 3.507812-7.835937 7.835937-7.835937 4.335938 0 7.835938 3.511719 7.835938 7.835937v99.695313h84.492187v-99.695313c0-4.324218 3.507813-7.835937 7.835938-7.835937 4.324218 0 7.835937 3.511719 7.835937 7.835937zm0 0" fill="#e6e6e6"/><path d="m189.792969 449.382812c-14.015625 0-25.363281-24.34375-25.363281-76.257812 0-51.917969 11.347656-111.738281 25.363281-111.738281-4.652344 0-8.421875 59.820312-8.421875 111.738281 0 51.914062 3.769531 76.257812 8.421875 76.257812zm0 0" fill="#3a3d51"/><path d="m259.210938 195.566406c0 56.753906-31.085938 83.375-69.414063 83.375-38.335937 0-69.410156-26.621094-69.410156-83.375 0-8.46875.6875-17.128906 1.996093-25.730468 7.4375-49.089844 34.792969-96.433594 67.414063-96.433594 32.613281 0 59.980469 47.34375 67.417969 96.433594 1.304687 8.605468 1.996094 17.265624 1.996094 25.730468zm0 0" fill="#e6e6e6"/><g fill="#fff"><path d="m257.214844 169.835938c-7.4375 40.707031-34.804688 59.980468-67.417969 59.980468-32.621094 0-59.976563-19.273437-67.414063-59.980468 7.4375-49.089844 34.792969-96.433594 67.414063-96.433594 32.613281 0 59.980469 47.34375 67.417969 96.433594zm0 0"/><path d="m390.597656 76.082031c-3.953125.5-6.8125 4.050781-6.8125 8.035157v91.070312c0 4.617188-3.746094 8.359375-8.363281 8.359375h-1.488281c-4.617188 0-8.359375-3.742187-8.359375-8.359375v-91.007812c0-4.289063-3.308594-8.03125-7.597657-8.160157-4.4375-.132812-8.078124 3.425781-8.078124 7.832031v91.335938c0 4.617188-3.742188 8.359375-8.359376 8.359375-4.617187 0-8.359374-3.742187-8.359374-8.359375v-91.003906c0-4.292969-3.304688-8.035156-7.597657-8.164063-4.4375-.132812-8.078125 3.425781-8.078125 7.835938v91.332031c0 4.617188-3.742187 8.363281-8.359375 8.363281h-1.492187c-4.617188 0-8.359375-3.746093-8.359375-8.363281v-91.070312c0-3.984376-2.863281-7.535157-6.816407-8.035157-4.78125-.605469-8.855468 3.109375-8.855468 7.769531v101.324219c9.957031 22.058594 32.140625 37.40625 57.917968 37.40625 17.542969 0 33.425782-7.113281 44.910157-18.609375 5.402343-5.390625 9.832031-11.765625 13.007812-18.816406v-101.304688c0-4.660156-4.078125-8.375-8.859375-7.769531zm0 0"/></g></svg>