<?xml version="1.0" encoding="iso-8859-1"?>
<!-- Generator: Adobe Illustrator 19.0.0, SVG Export Plug-In . SVG Version: 6.00 Build 0)  -->
<svg version="1.1" id="Layer_1" xmlns="http://www.w3.org/2000/svg" xmlns:xlink="http://www.w3.org/1999/xlink" x="0px" y="0px"
	 viewBox="0 0 512 512" style="enable-background:new 0 0 512 512;" xml:space="preserve">
<polygon style="fill:#FFE669;" points="66.326,136.419 248.977,357.946 399.741,285.251 317.412,0 "/>
<polygon style="fill:#363640;" points="417.693,296.099 419.913,354.328 369.333,407.977 295.905,414.664 251.46,376.978 
	326.792,320.539 "/>
<path style="fill:#464754;" d="M295.905,414.664l22.554,46.354c7.671,15.767,26.672,22.33,42.441,14.659l66.909-32.554
	c15.767-7.671,22.33-26.672,14.659-42.441l-22.554-46.354L295.905,414.664z"/>
<path style="fill:#A9ACCC;" d="M408.054,261.215l-178.093,86.651c-8.836,4.299-12.514,14.947-8.215,23.784l0,0
	c4.299,8.836,14.947,12.514,23.784,8.215l178.093-86.651c8.836-4.299,12.514-14.947,8.215-23.784l0,0
	C427.538,260.594,416.89,256.916,408.054,261.215z"/>
<path style="fill:#D3D7FF;" d="M242.374,360.279l178.093-86.651c4.054-1.972,8.486-2.248,12.515-1.135
	c-0.287-1.036-0.658-2.063-1.145-3.065c-4.299-8.836-14.948-12.514-23.784-8.215l-178.093,86.651
	c-8.836,4.299-12.514,14.947-8.215,23.784l0,0c2.326,4.782,6.517,8.035,11.269,9.348
	C230.774,372.892,234.539,364.091,242.374,360.279z"/>
<path style="fill:#363640;" d="M392.423,429.814L392.423,429.814c-19.579,0-35.452,15.873-35.452,35.452V512h70.906v-46.733
	C427.876,445.687,412.004,429.814,392.423,429.814z"/>
<circle style="fill:#A9ACCC;" cx="392.42" cy="464.566" r="11.042"/>
<g>
</g>
<g>
</g>
<g>
</g>
<g>
</g>
<g>
</g>
<g>
</g>
<g>
</g>
<g>
</g>
<g>
</g>
<g>
</g>
<g>
</g>
<g>
</g>
<g>
</g>
<g>
</g>
<g>
</g>
</svg>
