<svg height="512pt" viewBox="0 -26 512 512" width="512pt" xmlns="http://www.w3.org/2000/svg"><path d="m460.769531 272c-2.480469-27.515625-26.625-52.199219-67.988281-69.503906-37.839844-15.832032-87.378906-24.546875-139.488281-24.546875-58.847657 0-107.675781 9.128906-145.136719 27.140625l-7.214844 3.464844-12.769531 89.183593h372.660156v-25.066406zm0 0" fill="#e8398b"/><path d="m130.574219 267.976562c3.210937-7.996093 4.894531-16.578124 4.894531-25.28125 0-37.335937-30.378906-67.710937-67.714844-67.710937-37.335937 0-67.7109372 30.375-67.7109372 67.710937 0 8.703126 1.6796872 17.285157 4.8945312 25.28125zm0 0" fill="#f6afd1"/><path d="m426.742188 254.753906h-426.742188l.257812 91.222656h493.746094v-23.964843c-.003906-37.085938-30.175781-67.257813-67.261718-67.257813zm0 0" fill="#545ac3"/><path d="m460.769531 272c-2.480469-27.515625-26.625-52.199219-67.988281-69.503906-37.839844-15.832032-87.378906-24.546875-139.488281-24.546875-.761719 0-1.511719.007812-2.269531.011719v119.777343h209.808593v-25.066406zm0 0" fill="#ad2b68"/><path d="m426.742188 254.753906h-175.722657v91.222656h242.980469v-23.964843c0-37.085938-30.171875-67.257813-67.257812-67.257813zm0 0" fill="#404aa2"/><path d="m363.34375 89.617188h-108.941406l52.632812-59.621094h-43.011718v-29.996094h109.503906l-52.628906 59.617188h42.445312zm0 0" fill="#22b8f9"/><path d="m501.8125 156.8125h-108.9375l52.628906-59.621094h-43.007812v-29.996094h109.503906l-52.628906 59.617188h42.441406zm0 0" fill="#22b8f9"/><path d="m373.527344 0h-61.011719v89.617188h50.828125v-30h-42.445312zm0 0" fill="#1272fb"/><path d="m512 67.195312h-60.683594v89.617188h50.496094v-30h-42.441406zm0 0" fill="#1272fb"/><path d="m30.039062 315.976562v-213.0625h-29.9960932v356.808594h29.9960932v-37.191406h451.964844v37.191406h29.996094v-143.746094zm0 0" fill="#fdbf00"/><path d="m251.019531 315.976562v106.554688h230.984375v37.191406h29.996094v-143.746094zm0 0" fill="#fd982c"/></svg>