<svg height="493pt" viewBox="-110 0 493 493" width="493pt" xmlns="http://www.w3.org/2000/svg"><path d="m238 229.5c-4.691406.003906-8.496094-3.800781-8.5-8.488281 0-.003907 0-.007813 0-.011719v-51c0-4.695312 3.804688-8.5 8.5-8.5s8.5 3.804688 8.5 8.5v51c.003906 4.691406-3.800781 8.496094-8.488281 8.5-.003907 0-.007813 0-.011719 0zm0 0" fill="#e9686a"/><path d="m255 238c0 9.390625-7.609375 17-17 17s-17-7.609375-17-17 7.609375-17 17-17 17 7.609375 17 17zm0 0" fill="#5a6470"/><path d="m238 263.5c-14.082031 0-25.5-11.417969-25.5-25.5s11.417969-25.5 25.5-25.5 25.5 11.417969 25.5 25.5c-.015625 14.078125-11.421875 25.484375-25.5 25.5zm0-34c-4.695312 0-8.5 3.804688-8.5 8.5s3.804688 8.5 8.5 8.5 8.5-3.804688 8.5-8.5c-.003906-4.691406-3.808594-8.496094-8.5-8.5zm0 0" fill="#5a6470"/><path d="m17 340h238v153h-238zm0 0" fill="#eda366"/><path d="m272 170h-272l51-170h170zm0 0" fill="#f49e21"/><path d="m119 170h34v51h-34zm0 0" fill="#ffd782"/><path d="m187 340h-102l-17-59.5 17-59.5h102l17 59.5zm0 0" fill="#e9686a"/><path d="m195.5 42.5h-119c-4.695312 0-8.5-3.804688-8.5-8.5s3.804688-8.5 8.5-8.5h119c4.695312 0 8.5 3.804688 8.5 8.5s-3.804688 8.5-8.5 8.5zm0 0" fill="#fcf05a"/><path d="m51 374h170v85h-170zm0 0" fill="#ad6327"/><path d="m153 425h-34c-4.695312 0-8.5-3.804688-8.5-8.5s3.804688-8.5 8.5-8.5h34c4.695312 0 8.5 3.804688 8.5 8.5s-3.804688 8.5-8.5 8.5zm0 0" fill="#d3843d"/></svg>