<svg height="488pt" viewBox="-27 0 487 488" width="488pt" xmlns="http://www.w3.org/2000/svg"><path d="m232.5 384v-16c0-8.839844-7.160156-16-16-16s-16 7.160156-16 16v16zm0 0" fill="#b3b3b3"/><path d="m272.5 480h-112c-30.929688 0-56-25.070312-56-56v-40h224v40c0 30.929688-25.070312 56-56 56zm0 0" fill="#808080"/><g fill="#999"><path d="m304.5 424v-40h-200v40c0 30.929688 25.070312 56 56 56h88c30.929688 0 56-25.070312 56-56zm0 0"/><path d="m344.5 320v16c0 8.839844-7.160156 16-16 16s-16-7.160156-16-16v-16zm0 0"/><path d="m120.5 320v16c0 8.839844-7.160156 16-16 16s-16-7.160156-16-16v-16zm0 0"/></g><path d="m56.5 288h320v32h-320zm0 0" fill="#808080"/><path d="m56.5 304h320v16h-320zm0 0" fill="#b3b3b3"/><path d="m272.5 240h-272v-240h432v240h-96" fill="#808080"/><path d="m.5 0v240h416v-240zm0 0" fill="#999"/><path d="m272.5 208h-240v-176h368v176h-64" fill="#b3b3b3"/><path d="m32.5 32v176h344v-176zm0 0" fill="#e6e6e6"/><path d="m8.5 472h416v16h-416zm0 0" fill="#b3b3b3"/><path d="m272.5 176h64v112h-64zm0 0" fill="#a67c52"/><path d="m272.5 176h40v112h-40zm0 0" fill="#c69c6d"/><path d="m288.5 144h32v32h-32zm0 0" fill="#736357"/></svg>