<svg height="512pt" viewBox="0 -31 512 512" width="512pt" xmlns="http://www.w3.org/2000/svg"><path d="m361 120v90h-150l-30-30h-15c-8.402344 0-15-6.597656-15-15v-30c0-8.402344 6.597656-15 15-15zm0 0" fill="#3e5959"/><path d="m15 240c-8.285156 0-15 6.714844-15 15v30c0 8.285156 6.714844 15 15 15h15l30 30h151v-90zm0 0" fill="#3e5959"/><path d="m271 120h90v90h-90zm0 0" fill="#384949"/><path d="m512 60v135c0 4.5-2.101562 9-5.699219 11.699219l-235.300781 187.5-65.699219 52.5c-2.703125 2.101562-6 3.300781-9.300781 3.300781h-151c-8.402344 0-15-6.597656-15-15v-135h151v-120h150v-150h151zm0 0" fill="#cb671b"/><path d="m512 60v135c0 4.5-2.101562 9-5.699219 11.699219l-235.300781 187.5v-214.199219h60v-150h151zm0 0" fill="#bc5f19"/><path d="m512 60h-196c-8.285156 0-15-6.714844-15-15v-30c0-8.285156 6.714844-15 15-15h181c8.285156 0 15 6.714844 15 15zm0 0" fill="#384949"/></svg>