<svg height="512pt" viewBox="0 -26 512 512" width="512pt" xmlns="http://www.w3.org/2000/svg"><path d="m8.828125 229.515625h211.863281c4.875 0 8.824219 3.953125 8.824219 8.828125v211.863281c0 4.875-3.949219 8.828125-8.824219 8.828125h-211.863281c-4.875 0-8.828125-3.953125-8.828125-8.828125v-211.863281c0-4.875 3.953125-8.828125 8.828125-8.828125zm0 0" fill="#f0c419"/><path d="m370.757812 61.792969v105.929687c-16.390624-.011718-32.117187 6.496094-43.707031 18.085938-11.589843 11.59375-18.097656 27.316406-18.085937 43.707031h-105.929688c.011719-16.390625-6.496094-32.113281-18.085937-43.707031-11.589844-11.589844-27.316407-18.097656-43.707031-18.085938v-105.929687c16.390624.011719 32.117187-6.496094 43.707031-18.085938 11.589843-11.589843 18.097656-27.316406 18.085937-43.707031h105.929688c-.011719 16.390625 6.496094 32.117188 18.085937 43.707031 11.589844 11.589844 27.316407 18.097657 43.707031 18.085938zm0 0" fill="#e64c3c"/><path d="m291.308594 229.515625h211.863281c4.875 0 8.828125 3.953125 8.828125 8.828125v211.863281c0 4.875-3.953125 8.828125-8.828125 8.828125h-211.863281c-4.875 0-8.824219-3.953125-8.824219-8.828125v-211.863281c0-4.875 3.949219-8.828125 8.824219-8.828125zm0 0" fill="#2fa8cc"/><g fill="#f29c1f"><path d="m61.792969 229.515625c.011719 16.394531-6.496094 32.117187-18.085938 43.710937-11.589843 11.589844-27.316406 18.097657-43.707031 18.082032v-52.964844c.015625-4.867188 3.957031-8.8125 8.828125-8.828125zm0 0"/><path d="m229.515625 238.34375v52.964844c-16.390625.015625-32.113281-6.492188-43.707031-18.082032-11.589844-11.59375-18.097656-27.316406-18.085938-43.710937h52.96875c4.867188.015625 8.8125 3.960937 8.824219 8.828125zm0 0"/><path d="m61.792969 459.035156h-52.964844c-4.871094-.015625-8.8125-3.957031-8.828125-8.828125v-52.964843c16.390625-.011719 32.117188 6.492187 43.707031 18.085937 11.589844 11.589844 18.097657 27.3125 18.085938 43.707031zm0 0"/><path d="m229.515625 397.242188v52.964843c-.011719 4.871094-3.957031 8.8125-8.824219 8.828125h-52.96875c-.011718-16.394531 6.496094-32.117187 18.085938-43.707031 11.59375-11.59375 27.316406-18.097656 43.707031-18.085937zm0 0"/></g><path d="m119.171875 397.242188h-30.894531c-4.875 0-8.828125-3.953126-8.828125-8.828126v-88.277343c0-4.875 3.953125-8.828125 8.828125-8.828125h22.066406c11.570312-.007813 22.171875 6.453125 27.472656 16.734375 5.296875 10.285156 4.40625 22.667969-2.3125 32.082031 11.707032 7.289062 17.167969 21.457031 13.375 34.71875-3.792968 13.261719-15.914062 22.398438-29.707031 22.398438zm-22.070313-17.65625h22.070313c7.3125 0 13.242187-5.929688 13.242187-13.242188s-5.929687-13.242188-13.242187-13.242188h-22.070313zm0-44.136719h13.242188c7.3125 0 13.242188-5.929688 13.242188-13.242188s-5.929688-13.242187-13.242188-13.242187h-13.242188zm0 0" fill="#e64c3c"/><path d="m203.035156 0c.011719 16.390625-6.496094 32.117188-18.085937 43.707031-11.589844 11.589844-27.316407 18.097657-43.707031 18.085938v-52.964844c.011718-4.871094 3.957031-8.8125 8.828124-8.828125zm0 0" fill="#c03a2b"/><path d="m370.757812 8.828125v52.964844c-16.390624.011719-32.117187-6.496094-43.707031-18.085938-11.589843-11.589843-18.097656-27.316406-18.085937-43.707031h52.964844c4.871093.015625 8.816406 3.957031 8.828124 8.828125zm0 0" fill="#c03a2b"/><path d="m203.035156 229.515625h-52.964844c-4.871093-.011719-8.816406-3.957031-8.828124-8.824219v-52.96875c16.390624-.011718 32.117187 6.496094 43.707031 18.085938 11.589843 11.59375 18.097656 27.316406 18.085937 43.707031zm0 0" fill="#c03a2b"/><path d="m370.757812 167.722656v52.96875c-.011718 4.867188-3.957031 8.8125-8.828124 8.824219h-52.964844c-.011719-16.390625 6.496094-32.113281 18.085937-43.707031 11.589844-11.589844 27.316407-18.097656 43.707031-18.085938zm0 0" fill="#c03a2b"/><path d="m344.277344 229.515625c.011718 16.394531-6.496094 32.117187-18.085938 43.710937-11.59375 11.589844-27.316406 18.097657-43.707031 18.082032v-52.964844c.011719-4.867188 3.957031-8.8125 8.824219-8.828125zm0 0" fill="#67b9cc"/><path d="m512 238.34375v52.964844c-16.390625.015625-32.117188-6.492188-43.707031-18.082032-11.589844-11.59375-18.097657-27.316406-18.085938-43.710937h52.964844c4.871094.015625 8.8125 3.960937 8.828125 8.828125zm0 0" fill="#67b9cc"/><path d="m344.277344 459.035156h-52.96875c-4.867188-.015625-8.8125-3.957031-8.824219-8.828125v-52.964843c16.390625-.011719 32.113281 6.492187 43.707031 18.085937 11.589844 11.589844 18.097656 27.3125 18.085938 43.707031zm0 0" fill="#67b9cc"/><path d="m512 397.242188v52.964843c-.015625 4.871094-3.957031 8.8125-8.828125 8.828125h-52.964844c-.011719-16.394531 6.496094-32.117187 18.085938-43.707031 11.589843-11.59375 27.316406-18.097656 43.707031-18.085937zm0 0" fill="#67b9cc"/><path d="m423.722656 397.242188h-17.652344c-24.367187-.03125-44.109374-19.773438-44.140624-44.140626v-17.652343c.03125-24.367188 19.773437-44.109375 44.140624-44.140625h17.652344c4.875 0 8.828125 3.953125 8.828125 8.828125s-3.953125 8.828125-8.828125 8.828125h-17.652344c-14.621093.015625-26.46875 11.863281-26.484374 26.484375v17.652343c.015624 14.621094 11.863281 26.46875 26.484374 26.484376h17.652344c4.875 0 8.828125 3.953124 8.828125 8.828124s-3.953125 8.828126-8.828125 8.828126zm0 0" fill="#f0c419"/><path d="m282.472656 167.730469c-3.976562-.007813-7.460937-2.671875-8.507812-6.511719l-17.964844-65.875-17.964844 65.875c-1.285156 4.707031-6.136718 7.480469-10.84375 6.195312-4.703125-1.28125-7.476562-6.136718-6.195312-10.839843l26.484375-97.105469c1.042969-3.84375 4.535156-6.511719 8.519531-6.511719 3.980469 0 7.472656 2.667969 8.515625 6.511719l26.484375 97.105469c.71875 2.65625.160156 5.492187-1.511719 7.679687-1.667969 2.1875-4.261719 3.472656-7.015625 3.476563zm0 0" fill="#f0c419"/><path d="m275.242188 141.242188h-38.484376c-4.878906 0-8.828124-3.953126-8.828124-8.828126s3.949218-8.828124 8.828124-8.828124h38.484376c4.878906 0 8.828124 3.953124 8.828124 8.828124s-3.949218 8.828126-8.828124 8.828126zm0 0" fill="#f0c419"/></svg>