<svg height="467pt" viewBox="-120 0 467 467.996" width="467pt" xmlns="http://www.w3.org/2000/svg"><path d="m114.5 137.996094c-19.386719 0-34.640625 16.558594-33.050781 35.878906l20.726562 252.121094h7.394531l-8.292968-252.121094c-.632813-19.320312 5.46875-35.878906 13.222656-35.878906zm0 0" fill="#ede49d"/><path d="m114.5 137.996094c7.753906 0 13.855469 16.558594 13.21875 35.878906l-8.292969 252.121094h7.394531l20.730469-252.121094c1.585938-19.320312-13.664062-35.878906-33.050781-35.878906zm0 0" fill="#d3ba2a"/><path d="m114.5 137.996094c-7.753906 0-13.855469 16.558594-13.222656 35.878906l8.292968 252.121094h9.855469l8.292969-252.121094c.636719-19.320312-5.464844-35.878906-13.21875-35.878906zm0 0" fill="#eee045"/><path d="m102.5 114h24v24h-24zm0 0" fill="#eee045"/><path d="m126.820312 431.996094h-24.644531c-3.125 0-5.726562-2.394532-5.980469-5.507813l-20.726562-252.121093c-.894531-10.875 2.832031-21.714844 10.226562-29.742188 7.390626-8.023438 17.890626-12.628906 28.800782-12.628906 10.914062 0 21.410156 4.605468 28.804687 12.628906 7.390625 8.027344 11.121094 18.867188 10.226563 29.742188l-20.726563 252.121093c-.253906 3.113281-2.855469 5.507813-5.980469 5.507813zm-19.117187-12h13.59375l20.273437-246.613282c.628907-7.652343-1.886718-14.980468-7.09375-20.625-5.203124-5.648437-12.296874-8.761718-19.976562-8.761718s-14.773438 3.113281-19.976562 8.761718c-5.203126 5.644532-7.71875 12.972657-7.09375 20.625zm0 0" fill="#1c2d6b"/><path d="m144.074219 425.996094h-24.820313c10.628906 0 19.242188 8.617187 19.242188 19.242187v16.757813h36v-5.574219c.003906-16.804687-13.617188-30.425781-30.421875-30.425781zm0 0" fill="#d3ba2a"/><path d="m109.742188 425.996094h-24.820313c-16.804687 0-30.425781 13.621094-30.425781 30.425781v5.574219h36v-16.757813c.003906-10.625 8.617187-19.242187 19.246094-19.242187zm0 0" fill="#ede49d"/><path d="m119.257812 425.996094h-9.515624c-10.628907 0-19.242188 8.617187-19.242188 19.242187v16.757813h48v-16.757813c0-10.625-8.617188-19.242187-19.242188-19.242187zm0 0" fill="#eee045"/><path d="m174.5 467.996094h-120c-3.316406 0-6-2.6875-6-6v-5.574219c0-20.085937 16.339844-36.425781 36.425781-36.425781h59.148438c20.085937 0 36.425781 16.339844 36.425781 36.425781v5.574219c0 3.3125-2.6875 6-6 6zm-113.996094-12h107.992188c-.230469-13.273438-11.097656-24-24.421875-24h-59.148438c-13.328125 0-24.195312 10.726562-24.421875 24zm0 0" fill="#1c2d6b"/><path d="m126.5 144h-24c-3.316406 0-6-2.6875-6-6v-24c0-3.3125 2.683594-6 6-6h24c3.3125 0 6 2.6875 6 6v24c0 3.3125-2.6875 6-6 6zm-18-12h12v-12h-12zm0 0" fill="#1c2d6b"/><path d="m60.5 6-54 108h72l18-108zm0 0" fill="#ef7f72"/><path d="m168.5 6h-36l18 108h72zm0 0" fill="#e8383b"/><path d="m96.5 6-18 108h72l-18-108zm0 0" fill="#e95947"/><path d="m222.5 120h-216c-2.082031 0-4.011719-1.074219-5.105469-2.847656-1.09375-1.769532-1.195312-3.976563-.261719-5.835938l54-108c1.015626-2.035156 3.09375-3.316406 5.367188-3.316406h108c2.273438 0 4.347656 1.285156 5.367188 3.316406l54 108c.929687 1.859375.828124 4.066406-.265626 5.835938-1.09375 1.773437-3.023437 2.847656-5.101562 2.847656zm-206.292969-12h196.582031l-48-96h-100.582031zm0 0" fill="#1c2d6b"/></svg>