<svg xmlns="http://www.w3.org/2000/svg" height="512pt" version="1.1" viewBox="0 0 512 512" width="512pt">
<g id="surface1">
<path d="M 419.546875 180 L 255.945312 210 L 92.347656 180 L 255.945312 30 Z M 419.546875 180 " style=" stroke:none;fill-rule:nonzero;fill:rgb(49.411765%,36.470588%,25.098039%);fill-opacity:1;" />
<path d="M 419.546875 180 L 255.945312 210 L 255.945312 30 Z M 419.546875 180 " style=" stroke:none;fill-rule:nonzero;fill:rgb(40.784314%,30.196078%,20.392157%);fill-opacity:1;" />
<path d="M 451.945312 210 L 451.945312 300 L 255.945312 330 L 59.945312 300 L 59.945312 210 L 92.347656 180 L 419.546875 180 Z M 451.945312 210 " style=" stroke:none;fill-rule:nonzero;fill:rgb(54.117647%,40%,27.058824%);fill-opacity:1;" />
<path d="M 451.945312 210 L 451.945312 300 L 255.945312 330 L 255.945312 180 L 419.546875 180 Z M 451.945312 210 " style=" stroke:none;fill-rule:nonzero;fill:rgb(49.411765%,36.470588%,25.098039%);fill-opacity:1;" />
<path d="M 451.945312 300 L 451.945312 420 L 255.945312 450 L 59.945312 420 L 59.945312 300 Z M 451.945312 300 " style=" stroke:none;fill-rule:nonzero;fill:rgb(49.411765%,36.470588%,25.098039%);fill-opacity:1;" />
<path d="M 451.945312 300 L 451.945312 420 L 255.945312 450 L 255.945312 300 Z M 451.945312 300 " style=" stroke:none;fill-rule:nonzero;fill:rgb(40.784314%,30.196078%,20.392157%);fill-opacity:1;" />
<path d="M 451.945312 420 L 451.945312 497 C 451.945312 505.398438 445.347656 512 436.945312 512 L 360.945312 512 L 330.945312 482 L 180.945312 482 L 150.945312 512 L 74.945312 512 C 66.546875 512 59.945312 505.398438 59.945312 497 L 59.945312 420 Z M 451.945312 420 " style=" stroke:none;fill-rule:nonzero;fill:rgb(54.117647%,40%,27.058824%);fill-opacity:1;" />
<path d="M 255.945312 420 L 451.945312 420 L 451.945312 497 C 451.945312 505.398438 445.347656 512 436.945312 512 L 360.945312 512 L 330.945312 482 L 255.945312 482 Z M 255.945312 420 " style=" stroke:none;fill-rule:nonzero;fill:rgb(49.411765%,36.470588%,25.098039%);fill-opacity:1;" />
<path d="M 508.347656 241.5 L 489.144531 264.601562 C 484.046875 270.898438 474.445312 271.800781 468.144531 266.398438 L 255.945312 76.5 L 43.746094 266.398438 C 37.445312 271.800781 27.847656 270.898438 22.746094 264.601562 L 3.546875 241.5 C -1.855469 235.199219 -0.953125 225.597656 5.347656 220.5 L 246.347656 3.601562 C 249.347656 1.199219 252.644531 0 255.945312 0 C 259.246094 0 262.546875 1.199219 265.546875 3.601562 L 506.546875 220.5 C 512.847656 225.597656 513.746094 235.199219 508.347656 241.5 Z M 508.347656 241.5 " style=" stroke:none;fill-rule:nonzero;fill:rgb(100%,47.058824%,8.627451%);fill-opacity:1;" />
<path d="M 508.347656 241.5 L 489.144531 264.601562 C 484.046875 270.898438 474.445312 271.800781 468.144531 266.398438 L 255.945312 76.5 L 255.945312 0 C 259.246094 0 262.546875 1.199219 265.546875 3.601562 L 506.546875 220.5 C 512.847656 225.597656 513.746094 235.199219 508.347656 241.5 Z M 508.347656 241.5 " style=" stroke:none;fill-rule:nonzero;fill:rgb(100%,29.411765%,0%);fill-opacity:1;" />
<path d="M 360.945312 255 L 360.945312 512 L 150.945312 512 L 150.945312 255 C 150.945312 246.597656 157.546875 240 165.945312 240 L 345.945312 240 C 354.347656 240 360.945312 246.597656 360.945312 255 Z M 360.945312 255 " style=" stroke:none;fill-rule:nonzero;fill:rgb(100%,47.058824%,8.627451%);fill-opacity:1;" />
<path d="M 360.945312 255 L 360.945312 512 L 255.945312 512 L 255.945312 240 L 345.945312 240 C 354.347656 240 360.945312 246.597656 360.945312 255 Z M 360.945312 255 " style=" stroke:none;fill-rule:nonzero;fill:rgb(100%,29.411765%,0%);fill-opacity:1;" />
<path d="M 225.945312 420 C 217.65625 420 210.945312 413.289062 210.945312 405 L 210.945312 375 C 210.945312 366.710938 217.65625 360 225.945312 360 C 234.238281 360 240.945312 366.710938 240.945312 375 L 240.945312 405 C 240.945312 413.289062 234.238281 420 225.945312 420 Z M 225.945312 420 " style=" stroke:none;fill-rule:nonzero;fill:rgb(49.411765%,36.470588%,25.098039%);fill-opacity:1;" />
</g>
</svg>