<svg height="496pt" viewBox="0 0 496.00059 496" width="496pt" xmlns="http://www.w3.org/2000/svg"><path d="m248.878906 197.28125-63.839844 139.679688-122.476562-37.359376-54.5625-291.601562h154.402344zm0 0" fill="#91cc04"/><path d="m329.734375 365.1875 107.125-32.695312 18.679687 61.214843c7.738282 25.355469-6.542968 52.183594-31.898437 59.921875l-15.300781 4.667969c-25.355469 7.738281-52.183594-6.542969-59.921875-31.898437zm0 0" fill="#3e3d42"/><path d="m297.441406 341.625 153.035156-46.703125 9.339844 30.605469-153.03125 46.703125zm0 0" fill="#c6c5ca"/><path d="m335.359375 8-86.480469 189.28125-86.476562-189.28125zm0 0" fill="#ff9811"/><path d="m488 8-52.800781 291.601562-122.480469 37.359376-63.839844-139.679688 86.480469-189.28125zm0 0" fill="#d80027"/><path d="m89.394531 458.375-15.300781-4.671875c-25.355469-7.738281-39.636719-34.566406-31.898438-59.921875l18.679688-61.210938 107.125 32.691407-18.683594 61.214843c-7.738281 25.355469-34.566406 39.636719-59.921875 31.898438zm0 0" fill="#3e3d42"/><path d="m190.960938 372.234375-153.03125-46.707031 9.339843-30.605469 153.035157 46.707031zm0 0" fill="#c6c5ca"/><path d="m488 480h-64v-16c-.046875-.667969-.179688-1.324219-.390625-1.960938l2.398437-.726562c29.570313-9.039062 46.21875-40.332031 37.191407-69.902344l-16.34375-53.601562 15.3125-4.671875c4.222656-1.292969 6.601562-5.761719 5.3125-9.984375l-9.335938-30.601563c-1.292969-4.222656-5.761719-6.597656-9.984375-5.308593l-2.734375.796874 50.445313-278.613281c.421875-2.335937-.210938-4.734375-1.730469-6.554687-1.519531-1.820313-3.769531-2.871094-6.140625-2.871094h-480c-2.378906 0-4.636719 1.058594-6.15625 2.890625s-2.144531 4.242187-1.707031 6.582031l52.128906 278.609375-2.65625-.800781c-4.222656-1.289062-8.691406 1.089844-9.984375 5.3125l-9.335938 30.605469c-1.289062 4.226562 1.089844 8.695312 5.3125 9.984375l15.304688 4.671875-16.355469 53.601562c-8.992187 29.578125 7.660157 60.851563 37.21875 69.902344l2.398438.730469c-.21875.617187-.355469 1.257812-.40625 1.910156v16h-64c-4.417969 0-8 3.582031-8 8s3.582031 8 8 8h144c4.417969 0 8-3.582031 8-8s-3.582031-8-8-8h-64v-13.40625c28.941406 7.652344 58.722656-9.105469 67.199219-37.816406l16.34375-53.601563 15.3125 4.671875c.753906.234375 1.542968.355469 2.335937.351563 1.308594 0 2.601563-.324219 3.757813-.933594 1.875-1 3.273437-2.699219 3.890624-4.730469l9.351563-30.535156c1.289063-4.222656-1.089844-8.691406-5.3125-9.984375l-6.535156-1.992187 52.800781-115.488282 52.796875 115.488282-6.527344 1.992187c-2.039062.609375-3.75 2.003906-4.757812 3.878906-1.007813 1.871094-1.226563 4.070313-.609375 6.105469l9.335937 30.609375c1.027344 3.363281 4.128907 5.660156 7.648438 5.664063.792969 0 1.578125-.117188 2.335937-.351563l15.304688-4.671875 16.367187 53.550781c8.488281 28.703125 38.265625 45.449219 67.199219 37.792969v13.40625h-64c-4.417969 0-8 3.582031-8 8s3.582031 8 8 8h144c4.417969 0 8-3.582031 8-8s-3.582031-8-8-8zm-346.320312-55.894531c-6.480469 21.101562-28.808594 32.988281-49.933594 26.582031l-15.304688-4.671875c-21.109375-6.472656-33.003906-28.804687-26.59375-49.933594l16.351563-53.601562 91.824219 28zm44-61.855469-137.757813-42.042969 4.671875-15.304687 137.726562 42.042968zm-4.976563-34.984375-111.175781-33.914063-51.925782-277.351562h139.65625l82.824219 181.25zm-5.855469-311.265625h148.058594l-74.027344 162zm142.242188 311.265625-59.417969-130.015625 82.824219-181.25h137.90625l-50.195313 277.359375zm-9.648438 19.679687 137.726563-42.042968 4.664062 15.304687-137.71875 42.042969zm48.640625 77.160157-16.351562-53.5625 91.8125-28 16.355469 53.601562c6.449218 21.128907-5.453126 43.488281-26.585938 49.9375l-15.296875 4.671875c-21.144531 6.410156-43.488281-5.515625-49.933594-26.648437zm0 0" fill="#231f20"/></svg>