<svg height="503pt" viewBox="0 0 503.3273 503" width="503pt" xmlns="http://www.w3.org/2000/svg"><path d="m442.582031 225.785156v269.015625c0 4.792969-3.886719 8.679688-8.679687 8.679688h-260.335938c-4.792968 0-8.679687-3.886719-8.679687-8.679688v-164.882812zm0 0" fill="#fdd7ad"/><path d="m96.503906 225.785156h-61.785156c-19.148438-.058594-34.65625-15.566406-34.71484375-34.714844v-172.5c-.20703125-8.734374 5.85156275-16.375 14.40624975-18.160156 5.042969-.855468 10.207032.550782 14.117188 3.84375 3.910156 3.296875 6.175781 8.144532 6.191406 13.257813v164.882812c0 4.792969 3.882812 8.675781 8.675781 8.675781h53.109375zm0 0" fill="#bdc3c7"/><path d="m390.515625 329.917969h-277.695313c-28.726562 0-52.070312-54.410157-52.070312-121.488281 0-67.082032 23.34375-121.492188 52.070312-121.492188h277.695313zm0 0" fill="#fdd7ad"/><path d="m390.515625 86.9375c26.207031 0 47.902344 45.296875 51.546875 104.132812v34.714844c-3.644531 58.835938-25.339844 104.132813-51.546875 104.132813-28.726563 0-52.070313-54.410157-52.070313-121.488281 0-67.082032 23.34375-121.492188 52.070313-121.492188zm0 0" fill="#fac176"/><path d="m373.851562 191.070312h86.085938c4.792969 0 8.679688-3.882812 8.679688-8.675781v-163.824219c-.210938-8.734374 5.847656-16.375 14.402343-18.160156 5.042969-.855468 10.207031.550782 14.117188 3.84375 3.910156 3.296875 6.175781 8.144532 6.191406 13.257813v173.558593c-.058594 19.148438-15.566406 34.65625-34.710937 34.714844h-94.765626zm0 0" fill="#bdc3c7"/><path d="m390.515625 277.851562c-25.308594 0-26.035156-62.316406-26.035156-69.421874 0-7.109376.726562-69.425782 26.035156-69.425782 4.570313-.019531 8.375 3.515625 8.691406 8.078125.316407 4.5625-2.964843 8.589844-7.496093 9.199219-3.550782 3.472656-9.875 21.695312-9.875 52.148438 0 30.449218 6.324218 48.699218 9.875 52.144531 4.53125.613281 7.8125 4.636719 7.496093 9.199219-.316406 4.5625-4.121093 8.097656-8.691406 8.078124zm0 0" fill="#f09372"/><path d="m442.582031 225.785156v68.816406c-9.371093 31.847657-25.078125 52.671876-42.871093 52.671876h-234.824219v-17.355469h225.628906c26.207031 0 47.8125-45.210938 51.546875-103.960938zm0 0" fill="#efc9a3"/></svg>