<?xml version="1.0" encoding="iso-8859-1"?>
<!-- Generator: Adobe Illustrator 19.0.0, SVG Export Plug-In . SVG Version: 6.00 Build 0)  -->
<svg version="1.1" id="Layer_1" xmlns="http://www.w3.org/2000/svg" xmlns:xlink="http://www.w3.org/1999/xlink" x="0px" y="0px"
	 viewBox="0 0 512 512" style="enable-background:new 0 0 512 512;" xml:space="preserve">
<path style="fill:#314E55;" d="M484.385,198.754l-248.077-41.351V73.845c0-3.827-2.221-7.308-5.692-8.928
	c-3.461-1.606-7.558-1.077-10.49,1.394L3.51,248.465C1.288,250.336,0,253.09,0,255.999s1.288,5.663,3.51,7.534l216.615,182.154
	c1.808,1.524,4.058,2.313,6.337,2.313c1.413,0,2.827-0.303,4.154-0.918c3.471-1.62,5.692-5.101,5.692-8.928V354.6l248.077-41.351
	C499.865,310.677,512,296.355,512,280.643V231.36C512,215.658,499.875,201.336,484.385,198.754z"/>
<path style="fill:#73C9C9;" d="M492.308,280.643c0,6.034-5.212,12.192-11.154,13.183l-256.308,42.721
	c-4.75,0.788-8.231,4.899-8.231,9.711v70.75L25.144,255.999l191.471-161.01v70.755c0,4.813,3.481,8.923,8.231,9.712l256.308,42.721
	c5.942,0.991,11.154,7.149,11.154,13.183V280.643z"/>
<g>
</g>
<g>
</g>
<g>
</g>
<g>
</g>
<g>
</g>
<g>
</g>
<g>
</g>
<g>
</g>
<g>
</g>
<g>
</g>
<g>
</g>
<g>
</g>
<g>
</g>
<g>
</g>
<g>
</g>
</svg>
