<?xml version="1.0" encoding="iso-8859-1"?>
<!-- Generator: Adobe Illustrator 19.0.0, SVG Export Plug-In . SVG Version: 6.00 Build 0)  -->
<svg version="1.1" id="Capa_1" xmlns="http://www.w3.org/2000/svg" xmlns:xlink="http://www.w3.org/1999/xlink" x="0px" y="0px"
	 viewBox="0 0 512 512" style="enable-background:new 0 0 512 512;" xml:space="preserve">
<g>
	<g>
		<rect x="39.051" y="277.695" style="fill:#BDC3C7;" width="34.712" height="204.01"/>
		<rect x="438.237" y="277.695" style="fill:#BDC3C7;" width="34.712" height="204.01"/>
	</g>
	<g>
		<path style="fill:#5E5F62;" d="M177.898,190.915c-4.793,0-8.678-3.885-8.678-8.678v-86.78
			c0.016-14.372,11.662-26.018,26.034-26.034h17.356c4.793,0,8.678,3.885,8.678,8.678c0,4.793-3.885,8.678-8.678,8.678h-17.356
			c-4.79,0.006-8.672,3.888-8.678,8.678v86.78C186.576,187.03,182.691,190.915,177.898,190.915z"/>
		<path style="fill:#5E5F62;" d="M334.102,190.915c-4.793,0-8.678-3.885-8.678-8.678v-86.78c-0.006-4.79-3.888-8.672-8.678-8.678
			H299.39c-4.793,0-8.678-3.885-8.678-8.678c0-4.793,3.885-8.678,8.678-8.678h17.356c14.372,0.016,26.018,11.662,26.034,26.034
			v86.78C342.78,187.03,338.894,190.915,334.102,190.915z"/>
	</g>
	<path style="fill:#95A5A5;" d="M160.542,312.407c-4.793,0-8.678-3.885-8.678-8.678v-26.034c0-4.793,3.885-8.678,8.678-8.678
		s8.678,3.885,8.678,8.678v26.034C169.22,308.522,165.335,312.407,160.542,312.407z"/>
	<rect x="86.78" y="199.593" style="fill:#BDC3C7;" width="345.435" height="52.068"/>
	<rect x="91.119" y="182.237" style="fill:#D1D4D1;" width="329.763" height="34.712"/>
	<g>
		<path style="fill:#7F8C8D;" d="M30.373,164.881h52.068c4.793,0,8.678,3.885,8.678,8.678v112.814c0,4.793-3.885,8.678-8.678,8.678
			H30.373c-4.793,0-8.678-3.885-8.678-8.678V173.559C21.695,168.767,25.58,164.881,30.373,164.881z"/>
		<path style="fill:#7F8C8D;" d="M429.559,164.881h52.068c4.793,0,8.678,3.885,8.678,8.678v112.814c0,4.793-3.885,8.678-8.678,8.678
			h-52.068c-4.793,0-8.678-3.885-8.678-8.678V173.559C420.881,168.767,424.767,164.881,429.559,164.881z"/>
		<path style="fill:#7F8C8D;" d="M134.508,216.949h52.068c4.793,0,8.678,3.885,8.678,8.678v43.39c0,4.793-3.885,8.678-8.678,8.678
			h-52.068c-4.793,0-8.678-3.885-8.678-8.678v-43.39C125.831,220.834,129.716,216.949,134.508,216.949z"/>
	</g>
	<path style="fill:#95A5A5;" d="M173.559,477.288H13.017c-4.787,0.014-8.664,3.891-8.678,8.678v17.356
		c0.014,4.787,3.891,8.664,8.678,8.678h485.966c4.787-0.014,8.664-3.891,8.678-8.678v-17.356c-0.014-4.787-3.891-8.664-8.678-8.678
		H173.559L173.559,477.288z"/>
	<path style="fill:#7F8C8D;" d="M351.458,512H160.542l21.811-58.162c2.54-6.774,9.016-11.262,16.251-11.262h114.792
		c7.235,0,13.711,4.488,16.251,11.262L351.458,512z"/>
	<path style="fill:#95A5A5;" d="M308.068,8.678v138.847c0,4.793-3.885,8.678-8.678,8.678s-8.678-3.885-8.678-8.678v-8.678h-69.424
		v8.678c0,4.793-3.885,8.678-8.678,8.678s-8.678-3.885-8.678-8.678V8.678c0-4.793,3.885-8.678,8.678-8.678s8.678,3.885,8.678,8.678
		v8.678h69.424V8.678c0-4.793,3.885-8.678,8.678-8.678S308.068,3.885,308.068,8.678z"/>
	<path style="fill:#ECF0F1;" d="M247.322,104.136c-4.793,0-8.678-3.885-8.678-8.678V60.746c0-4.793,3.885-8.678,8.678-8.678
		c4.793,0,8.678,3.885,8.678,8.678v34.712C256,100.25,252.115,104.136,247.322,104.136z"/>
</g>
<g>
</g>
<g>
</g>
<g>
</g>
<g>
</g>
<g>
</g>
<g>
</g>
<g>
</g>
<g>
</g>
<g>
</g>
<g>
</g>
<g>
</g>
<g>
</g>
<g>
</g>
<g>
</g>
<g>
</g>
</svg>
