<svg height="512pt" viewBox="-9 0 512 512" width="512pt" xmlns="http://www.w3.org/2000/svg"><path d="m247.011719 512c-94.652344 0-171.65625-77.003906-171.65625-171.65625v-159.03125c0-8.324219 6.746093-15.074219 15.070312-15.074219h313.171875c8.324219 0 15.074219 6.75 15.074219 15.074219v159.03125c0 94.652344-77.007813 171.65625-171.660156 171.65625zm0 0" fill="#ebf6fc"/><path d="m403.597656 166.238281h-156.589844v345.761719h.003907c94.652343 0 171.660156-77.003906 171.660156-171.65625v-159.03125c0-8.324219-6.75-15.074219-15.074219-15.074219zm0 0" fill="#cde2ff"/><path d="m247.007812 451.085938c-62.324218 0-113.03125-50.707032-113.03125-113.03125 0-62.328126 50.707032-113.03125 113.03125-113.03125 62.324219 0 113.03125 50.703124 113.03125 113.03125 0 62.324218-50.707031 113.03125-113.03125 113.03125zm0 0" fill="#145180"/><path d="m247.007812 225.023438v226.0625c62.324219 0 113.03125-50.707032 113.03125-113.03125 0-62.328126-50.707031-113.03125-113.03125-113.03125zm0 0" fill="#082130"/><path d="m247.007812 393.222656c-30.421874 0-55.167968-24.75-55.167968-55.167968 0-30.421876 24.746094-55.167969 55.167968-55.167969 30.417969 0 55.167969 24.746093 55.167969 55.167969 0 30.417968-24.75 55.167968-55.167969 55.167968zm0 0" fill="#fff"/><path d="m247.007812 282.886719v110.335937c30.417969 0 55.167969-24.75 55.167969-55.171875 0-30.417969-24.75-55.164062-55.167969-55.164062zm0 0" fill="#9ffeff"/><path d="m406.183594 196.386719h-318.34375c-28.757813 0-52.152344-23.394531-52.152344-52.152344v-54.8125c0-8.324219 6.75-15.074219 15.074219-15.074219h392.5c8.324219 0 15.074219 6.75 15.074219 15.074219v54.8125c0 28.757813-23.394532 52.152344-52.152344 52.152344zm0 0" fill="#145180"/><path d="m443.261719 74.347656h-196.253907v122.039063h159.175782c28.757812 0 52.152344-23.394531 52.152344-52.152344v-54.8125c0-8.324219-6.75-15.074219-15.074219-15.074219zm0 0" fill="#082130"/><path d="m441.875 104.496094h-389.726562c-28.753907 0-52.148438-23.394532-52.148438-52.148438v-37.273437c0-8.324219 6.75-15.074219 15.074219-15.074219h463.875c8.324219 0 15.074219 6.75 15.074219 15.074219v37.273437c0 28.753906-23.394532 52.148438-52.148438 52.148438zm0 0" fill="#68a8d4"/><path d="m478.949219 0h-231.941407v104.496094h194.867188c28.753906 0 52.148438-23.394532 52.148438-52.148438v-37.273437c0-8.324219-6.75-15.074219-15.074219-15.074219zm0 0" fill="#145180"/></svg>