<svg height="512pt" viewBox="0 -43 512 512" width="512pt" xmlns="http://www.w3.org/2000/svg"><path d="m354.84375 123.414062c-8.285156 0-15 6.714844-15 15v35.789063c0 8.285156 6.714844 15 15 15 8.28125 0 15-6.714844 15-15v-35.789063c0-8.285156-6.71875-15-15-15zm0 0" fill="#515260"/><path d="m497 362.902344h-482c-8.285156 0-15 6.714844-15 15s6.714844 15 15 15h482c8.285156 0 15-6.714844 15-15s-6.714844-15-15-15zm0 0" fill="#515260"/><path d="m86.714844 425.703125c-20.730469 0-37.539063-16.804687-37.539063-37.535156v-275.007813c0-20.726562 16.804688-37.53125 37.535157-37.53125 20.730468 0 37.535156 16.804688 37.535156 37.53125v275.003906c0 20.730469-16.804688 37.539063-37.53125 37.539063zm0 0" fill="#edeef2"/><path d="m86.714844 425.703125v-350.074219c20.726562 0 37.53125 16.804688 37.53125 37.53125v275.003906c0 20.730469-16.804688 37.539063-37.53125 37.539063zm0 0" fill="#9a9bab"/><path d="m161.785156 425.703125c-20.730468 0-37.535156-16.804687-37.535156-37.535156v-275.007813c0-20.726562 16.804688-37.53125 37.535156-37.53125 20.730469 0 37.535156 16.804688 37.535156 37.53125v275.003906c0 20.730469-16.804687 37.539063-37.535156 37.539063zm0 0" fill="#edeef2"/><path d="m161.785156 425.703125v-350.074219c20.730469 0 37.535156 16.804688 37.535156 37.53125v275.003906c0 20.730469-16.804687 37.539063-37.535156 37.539063zm0 0" fill="#9a9bab"/><path d="m236.855469 425.703125c-20.730469 0-37.539063-16.804687-37.539063-37.535156v-275.007813c0-20.726562 16.804688-37.53125 37.535156-37.53125 20.730469 0 37.535157 16.804688 37.535157 37.53125v275.003906c.003906 20.730469-16.800781 37.539063-37.53125 37.539063zm0 0" fill="#edeef2"/><path d="m236.855469 425.703125v-350.074219c20.730469 0 37.535156 16.804688 37.535156 37.53125v275.003906c0 20.730469-16.804687 37.539063-37.535156 37.539063zm0 0" fill="#9a9bab"/><path d="m311.925781 425.703125c-20.730469 0-37.535156-16.804687-37.535156-37.535156v-275.007813c0-20.726562 16.804687-37.53125 37.535156-37.53125 20.726563 0 37.535157 16.804688 37.535157 37.53125v275.003906c0 20.730469-16.804688 37.539063-37.535157 37.539063zm0 0" fill="#edeef2"/><path d="m311.925781 425.703125v-350.074219c20.730469 0 37.535157 16.804688 37.535157 37.53125v275.003906c0 20.730469-16.804688 37.539063-37.535157 37.539063zm0 0" fill="#9a9bab"/><g fill="#80ffd0"><path d="m448.988281 63.011719c-14.132812-14.132813-32.925781-21.914063-52.910156-21.914063-8.285156 0-15 6.714844-15 15s6.714844 15 15 15c11.972656 0 23.230469 4.660156 31.695313 13.128906 8.46875 8.464844 13.128906 19.722657 13.128906 31.695313 0 4.144531 1.679687 7.894531 4.394531 10.609375 2.714844 2.710938 6.464844 4.390625 10.605469 4.394531 8.285156 0 15-6.71875 15-15 0-19.988281-7.78125-38.78125-21.914063-52.914062zm0 0"/><path d="m512 109.972656c0-60.636718-49.335938-109.972656-109.972656-109.972656-8.285156 0-15 6.714844-15 15-.003906 8.285156 6.714844 15 15 15 44.097656 0 79.96875 35.875 79.972656 79.972656 0 4.144532 1.679688 7.894532 4.394531 10.609375 2.710938 2.714844 6.460938 4.394531 10.605469 4.394531 8.285156-.003906 15-6.71875 15-15.003906zm0 0"/><path d="m421.953125 106.472656c0 9.074219-7.355469 16.425782-16.425781 16.425782-9.074219 0-16.425782-7.351563-16.425782-16.425782 0-9.070312 7.351563-16.425781 16.425782-16.425781 9.070312 0 16.425781 7.355469 16.425781 16.425781zm0 0"/></g><path d="m448.988281 63.011719-21.214843 21.214843c8.46875 8.464844 13.128906 19.722657 13.128906 31.695313 0 4.144531 1.679687 7.890625 4.394531 10.605469s6.464844 4.394531 10.605469 4.394531c8.285156 0 15-6.714844 15-15 0-19.984375-7.78125-38.777344-21.914063-52.910156zm0 0" fill="#54ad95"/><path d="m512 109.972656c0-30.320312-12.335938-57.8125-32.246094-77.726562l-21.203125 21.203125c14.480469 14.480469 23.449219 34.476562 23.449219 56.523437 0 4.144532 1.679688 7.894532 4.394531 10.609375 2.710938 2.714844 6.460938 4.394531 10.605469 4.394531 8.285156-.003906 15-6.71875 15-15.003906zm0 0" fill="#54ad95"/><path d="m417.140625 94.859375-23.230469 23.230469c6.414063 6.414062 16.816406 6.414062 23.230469 0 6.414063-6.414063 6.414063-16.816406 0-23.230469zm0 0" fill="#54ad95"/></svg>