<svg height="512pt" viewBox="0 -16 512 512" width="512pt" xmlns="http://www.w3.org/2000/svg"><path d="m392.019531 15.003906h60.007813v135.015625h-60.007813zm0 0" fill="#cd0000"/><path d="m452.027344 180.023438v285.039062h-392.054688v-285.039062l196.027344-150.019532zm0 0" fill="#f2f2fc"/><path d="m452.027344 180.023438v285.039062h-196.027344v-435.058594zm0 0" fill="#d8d8fc"/><path d="m331.007812 315.042969v150.019531h-150.019531v-150.019531c0-8.402344 6.601563-15.003907 15.003907-15.003907h120.015624c8.402344 0 15 6.601563 15 15.003907zm0 0" fill="#575f64"/><path d="m467.027344 30.003906h-90.011719c-8.292969 0-15-6.710937-15-15 0-8.292968 6.707031-15.003906 15-15.003906h90.011719c8.292968 0 15.003906 6.710938 15.003906 15.003906 0 8.289063-6.710938 15-15.003906 15zm0 0" fill="#f03800"/><path d="m331.007812 315.042969v150.019531h-75.007812v-165.023438h60.007812c8.402344 0 15 6.601563 15 15.003907zm0 0" fill="#32393f"/><path d="m505.730469 174.324219-232.328125-168.625c-5.101563-3.898438-11.402344-5.699219-17.402344-5.699219-6.003906 0-12.300781 1.800781-17.40625 5.699219l-232.328125 168.625c-6.898437 5.097656-8.398437 14.699219-3 21.601562l18.601563 23.402344c5.101562 6.300781 14.105468 7.503906 20.703124 3l213.429688-155.421875 213.429688 155.421875c6.601562 4.503906 15.601562 3.300781 20.703124-3l18.601563-23.402344c5.398437-6.601562 3.898437-16.503906-3.003906-21.601562zm0 0" fill="#ff641a"/><path d="m508.734375 195.925781-18.605469 23.402344c-5.101562 6.300781-14.101562 7.503906-20.699218 3l-213.429688-155.421875v-66.90625c6 0 12.300781 1.800781 17.402344 5.699219l232.328125 168.625c6.902343 5.097656 8.402343 15 3.003906 21.601562zm0 0" fill="#f03800"/><path d="m482.03125 465.0625c0 8.398438-6.601562 15-15.003906 15h-422.054688c-8.402344 0-15.003906-6.601562-15.003906-15 0-8.402344 6.601562-15.003906 15.003906-15.003906h422.054688c8.402344 0 15.003906 6.601562 15.003906 15.003906zm0 0" fill="#9cdd05"/><path d="m482.03125 465.0625c0 8.398438-6.601562 15-15.003906 15h-211.027344v-30.003906h211.027344c8.402344 0 15.003906 6.601562 15.003906 15.003906zm0 0" fill="#6b0"/><path d="m256 180.023438c-24.90625 0-45.007812 20.101562-45.007812 45.007812 0 24.902344 20.101562 45.003906 45.007812 45.003906 24.902344 0 45.003906-20.101562 45.003906-45.003906 0-24.90625-20.101562-45.007812-45.003906-45.007812zm0 0" fill="#4bb9ec"/><path d="m256 270.035156v-90.011718c24.902344 0 45.003906 20.101562 45.003906 45.007812 0 24.902344-20.101562 45.003906-45.003906 45.003906zm0 0" fill="#0095ff"/></svg>