<?xml version="1.0" standalone="no"?>
<!DOCTYPE svg PUBLIC "-//W3C//DTD SVG 20010904//EN"
 "http://www.w3.org/TR/2001/REC-SVG-20010904/DTD/svg10.dtd">
<svg version="1.0" xmlns="http://www.w3.org/2000/svg"
 width="2000.000000pt" height="2000.000000pt" viewBox="0 0 2000.000000 2000.000000"
 preserveAspectRatio="xMidYMid meet">

<g transform="translate(0.000000,2000.000000) scale(0.100000,-0.100000)"
fill="#000000" stroke="none">
<path d="M9715 19364 c-446 -20 -1004 -111 -1465 -240 -444 -125 -1004 -343
-1385 -539 -909 -470 -1681 -1014 -2545 -1794 -265 -240 -874 -849 -1111
-1111 -713 -790 -1297 -1600 -1693 -2350 -74 -138 -94 -180 -216 -435 -81
-169 -214 -498 -291 -720 -182 -523 -303 -1074 -355 -1625 -25 -259 -25 -841
0 -1100 102 -1076 456 -2114 1073 -3154 508 -853 1135 -1644 1990 -2506 l302
-305 1 5423 0 5422 1748 0 1747 0 670 -2599 c368 -1430 672 -2598 675 -2596 3
2 305 1172 670 2599 l665 2596 2740 0 c1715 0 2802 -4 2905 -10 636 -39 1116
-148 1537 -350 341 -164 595 -342 854 -600 233 -232 448 -524 586 -796 27 -52
51 -94 55 -94 4 0 -16 55 -44 123 -110 267 -186 426 -371 777 -88 167 -290
504 -433 722 -68 104 -124 192 -124 196 0 4 -11 19 -25 34 -14 15 -25 31 -25
35 0 5 -11 20 -25 35 -14 15 -25 31 -25 35 0 5 -11 20 -25 35 -14 15 -25 31
-25 35 0 5 -10 19 -23 33 -12 14 -32 41 -44 60 -12 19 -33 47 -45 62 -13 14
-30 36 -38 48 -17 26 -59 79 -77 98 -7 7 -13 16 -13 20 0 4 -15 23 -33 43 -17
20 -41 48 -52 64 -25 35 -68 88 -76 95 -3 3 -10 12 -15 21 -5 9 -30 40 -56 70
-25 30 -74 88 -109 129 -35 41 -66 77 -69 80 -3 3 -15 17 -26 32 -179 232
-964 1038 -1384 1419 -532 482 -1058 895 -1575 1234 -347 228 -757 465 -1020
589 -38 18 -124 59 -190 91 -180 86 -530 227 -758 305 -515 176 -1031 290
-1550 340 -194 19 -688 33 -882 24z"/>
<path d="M14110 10035 l0 -2345 378 0 c709 0 1048 35 1331 136 144 51 240 113
362 234 327 324 460 739 500 1570 12 252 7 697 -11 915 -45 534 -159 945 -336
1211 -212 320 -586 519 -1114 594 -148 21 -371 30 -737 30 l-373 0 0 -2345z"/>
<path d="M6196 7015 l-7 -5220 22 -15 c100 -68 531 -307 694 -384 39 -18 124
-59 190 -91 180 -86 530 -227 758 -305 514 -176 1018 -287 1555 -342 298 -30
886 -30 1182 0 686 71 1318 231 1977 501 197 80 436 188 568 256 650 336 1170
671 1790 1154 116 90 212 167 215 170 3 3 30 26 60 51 52 41 78 64 119 100 9
8 39 33 66 55 27 21 59 48 71 60 12 11 59 54 105 95 46 41 90 82 99 90 9 8 52
47 95 85 234 206 844 822 1065 1074 30 34 73 81 95 104 22 23 55 61 73 84 19
23 44 53 55 66 12 14 38 44 57 67 39 47 58 70 98 116 15 17 42 49 60 72 19 23
44 52 55 65 12 13 29 34 37 46 8 13 24 33 35 45 11 13 27 33 35 46 8 13 24 33
35 46 11 12 29 34 39 49 11 14 28 36 38 48 45 55 54 66 68 87 8 12 69 97 134
189 227 315 495 735 679 1061 39 70 307 604 305 610 0 3 9 24 21 47 22 44 97
218 133 308 11 28 28 71 39 98 10 26 17 47 15 47 -2 0 -34 -55 -71 -122 -279
-506 -683 -940 -1148 -1235 -140 -88 -398 -214 -542 -263 -298 -102 -774 -204
-1221 -262 -168 -22 -179 -22 -2331 -25 l-2163 -4 -2 3137 -3 3136 -764 -2984
c-421 -1640 -782 -3052 -804 -3136 l-40 -152 -986 0 -986 0 -819 3208 c-451
1764 -825 3225 -831 3247 -8 30 -13 -1264 -19 -5180z"/>
</g>
</svg>
