<?xml version="1.0" encoding="iso-8859-1"?>
<!-- Generator: Adobe Illustrator 19.0.0, SVG Export Plug-In . SVG Version: 6.00 Build 0)  -->
<svg version="1.1" id="Capa_1" xmlns="http://www.w3.org/2000/svg" xmlns:xlink="http://www.w3.org/1999/xlink" x="0px" y="0px"
	 viewBox="0 0 509.339 509.339" style="enable-background:new 0 0 509.339 509.339;" xml:space="preserve">
<g>
	<polygon style="fill:#FFD83B;" points="169.318,120.672 195.686,174.112 254.662,182.688 211.99,224.288 222.054,283.024 
		169.318,255.28 116.566,283.024 126.63,224.288 83.958,182.688 142.934,174.112 	"/>
	<polygon style="fill:#FFD83B;" points="91.222,62.912 104.902,90.608 135.462,95.056 113.35,116.624 118.566,147.056 
		91.222,132.688 63.894,147.056 69.11,116.624 46.998,95.056 77.558,90.608 	"/>
</g>
<path style="fill:#2F3133;" d="M280.022,1.2v66.48c0,1.168,0.896,2.112,2,2.112s2-0.944,2-2.112V1.2H280.022z"/>
<path style="fill:#FFD83B;" d="M166.646,399.296c124.528-20.88,208.56-138.752,187.68-263.296
	c-9.248-55.168-37.6-102.336-77.072-136c107.12,15.584,196.704,98.464,215.568,210.96c23.376,139.44-70.704,271.424-210.144,294.8
	C170.182,524.624,62.63,466.976,12.95,370.784C57.638,397.136,111.462,408.544,166.646,399.296z"/>
<path style="fill:#6DAFDF;" d="M487.062,185.12h-129.92c0.16-2.08,0.16-4,0.16-6.08c0.16-2.4,0.16-4.8,0.16-7.2
	c0-11.84-1.12-23.68-3.04-35.84c-0.16-0.8-0.32-1.6-0.48-2.4c-0.16-1.12-0.32-2.08-0.64-3.2c-4.32-23.04-12.16-44.64-22.72-64.32
	c-0.16-0.16-0.16-0.48-0.32-0.64c-13.6-25.12-31.68-47.2-52.96-65.44c7.68,1.12,15.36,2.56,22.88,4.48c8,1.76,15.52,4.16,23.2,6.88
	h0.16c23.52,8,45.6,19.36,65.6,33.76c4.64,3.2,8.96,6.56,13.28,10.24h0.16c12.32,10.08,23.52,21.12,33.76,33.28
	c0.16,0.16,0.32,0.48,0.48,0.64v0.16c20,23.84,35.68,51.36,46.08,82.08c0.8,2.4,1.6,4.8,2.24,7.2
	C485.798,180.8,486.422,183.04,487.062,185.12z"/>
<g>
	<path style="fill:#4D98D2;" d="M323.718,24.32l-10.24-5.44l-10.08,5.44l1.92-11.36l-8.32-8l3.2-0.48c8,1.76,15.52,4.16,23.2,6.88
		l-1.6,1.6L323.718,24.32z"/>
	<polygon style="fill:#4D98D2;" points="340.374,34.896 345.478,45.232 356.87,46.88 348.63,54.912 350.566,66.272 340.374,60.912 
		330.182,66.272 332.134,54.912 323.894,46.88 335.286,45.232 	"/>
	<path style="fill:#4D98D2;" d="M404.342,66.24l-10.24-5.28l-10.24,5.28l2.08-11.36l-8.32-8l11.36-1.6l0.16-0.16
		c4.64,3.2,8.96,6.56,13.28,10.24h0.16L404.342,66.24z"/>
	<polygon style="fill:#4D98D2;" points="367.254,76.864 372.358,87.184 383.75,88.848 375.494,96.88 377.446,108.24 367.254,102.88 
		357.062,108.24 359.014,96.88 350.758,88.848 362.166,87.184 	"/>
	<polygon style="fill:#4D98D2;" points="420.998,76.864 426.102,87.184 437.494,88.848 429.254,96.88 431.19,108.24 420.998,102.88 
		410.806,108.24 412.758,96.88 404.518,88.848 415.91,87.184 	"/>
	<polygon style="fill:#4D98D2;" points="394.134,118.832 399.222,129.152 410.614,130.816 402.374,138.848 404.326,150.192 
		394.134,144.832 383.942,150.192 385.878,138.848 377.638,130.816 389.03,129.152 	"/>
	<polygon style="fill:#4D98D2;" points="447.878,118.832 452.966,129.152 464.374,130.816 456.118,138.848 458.07,150.192 
		447.878,144.832 437.686,150.192 439.638,138.848 431.382,130.816 442.774,129.152 	"/>
	<path style="fill:#4D98D2;" d="M375.542,180.8l0.8,4.32h-18.08l0.8-4.32l-1.76-1.76c0.16-2.4,0.16-4.8,0.16-7.2l4.64-0.8
		l5.12-10.24l5.12,10.24l11.36,1.76L375.542,180.8z"/>
	<polygon style="fill:#4D98D2;" points="429.302,180.8 430.102,185.12 412.022,185.12 412.838,180.8 404.502,172.8 415.878,171.04 
		420.982,160.8 426.102,171.04 437.462,172.8 	"/>
	<path style="fill:#4D98D2;" d="M483.062,180.8l0.8,4.32h-18.24l0.8-4.32l-8.16-8l11.36-1.76l5.12-10.24l5.12,10.24l3.04,0.48
		c0.8,2.4,1.6,4.8,2.24,7.2L483.062,180.8z"/>
</g>
<path style="opacity:0.05;fill:#2F3133;enable-background:new    ;" d="M363.142,28.976c40.96,37.248,70.304,87.856,80.176,146.72
	c23.376,139.44-70.704,271.424-210.144,294.8c-58.848,9.872-116.272-1.36-164.848-27.936
	c56.048,50.912,133.872,76.72,214.336,63.232c139.44-23.376,233.52-155.36,210.144-294.8
	C479.334,130.496,429.558,65.344,363.142,28.976z"/>
<path style="fill:#D03F3E;" d="M479.43,163.616c-6.752,0-12.464,4.016-15.2,9.728c-2.736-5.712-8.448-9.728-15.2-9.728
	s-12.464,4.016-15.2,9.728c-2.736-5.712-8.448-9.728-15.2-9.728s-12.464,4.016-15.2,9.728c-2.736-5.712-8.448-9.728-15.2-9.728
	s-12.464,4.016-15.2,9.728c-2.736-5.712-8.448-9.728-15.2-9.728c-9.36,0-16.96,7.584-16.96,16.96c0,9.36,7.584,16.96,16.96,16.96
	c6.752,0,12.464-4.016,15.2-9.728c2.736,5.712,8.448,9.728,15.2,9.728s12.464-4.016,15.2-9.728c2.736,5.712,8.448,9.728,15.2,9.728
	s12.464-4.016,15.2-9.728c2.736,5.712,8.448,9.728,15.2,9.728s12.464-4.016,15.2-9.728c2.736,5.712,8.448,9.728,15.2,9.728
	c9.36,0,16.96-7.584,16.96-16.96S488.79,163.616,479.43,163.616z"/>
<g>
	<path style="fill:#E14B4B;" d="M449.03,178.656c-6.624,0-12.224,3.904-15.008,9.44c2.784,5.536,8.384,9.44,15.008,9.44
		s12.224-3.888,15.008-9.44C461.254,182.544,455.654,178.656,449.03,178.656z"/>
	<path style="fill:#E14B4B;" d="M479.43,178.656c-6.624,0-12.224,3.904-15.008,9.44c2.784,5.536,8.384,9.44,15.008,9.44
		s12.208-3.904,15.008-9.44C491.638,182.544,486.054,178.656,479.43,178.656z"/>
	<path style="fill:#E14B4B;" d="M418.646,178.656c-6.624,0-12.224,3.904-15.008,9.44c2.784,5.536,8.384,9.44,15.008,9.44
		s12.224-3.888,15.008-9.44C430.87,182.544,425.27,178.656,418.646,178.656z"/>
	<path style="fill:#E14B4B;" d="M357.846,178.656c-6.624,0-12.208,3.904-15.008,9.44c2.784,5.536,8.384,9.44,15.008,9.44
		s12.224-3.888,15.008-9.44C370.07,182.544,364.47,178.656,357.846,178.656z"/>
	<path style="fill:#E14B4B;" d="M388.246,178.656c-6.624,0-12.224,3.888-15.008,9.44c2.784,5.536,8.384,9.44,15.008,9.44
		s12.224-3.888,15.008-9.44C400.47,182.544,394.87,178.656,388.246,178.656z"/>
	<circle style="fill:#E14B4B;" cx="282.358" cy="79.312" r="21.552"/>
</g>
<path style="fill:#E8AF2A;" d="M349.334,332.48c0,10.384-9.744,13.392-19.344,13.216c-7.296-0.128-12.656,3.424-20.176,3.424
	c-8.96,0-17.12-3.36-23.36-9.6c1.92-1.76,3.52-3.84,5.44-5.76c2.24,2.192,4.864,3.888,7.712,5.072
	c10.368,4.288,22.192-1.696,27.056-11.808c2-4.144,6.176-6.544,10.688-6.544C344.054,320.48,349.334,325.92,349.334,332.48z"/>
<path style="fill:#5B5F63;" d="M411.446,235.68c0,11.36-9.12,20.48-20.48,20.48c-11.2,0-20.48-9.12-20.48-20.48c0-2.08,1.92-4,4-4
	c2.24,0,4,1.92,4,4c0,6.88,5.6,12.48,12.48,12.48s12.48-5.6,12.48-12.48c0-2.08,1.76-4,4-4
	C409.686,231.68,411.446,233.6,411.446,235.68z"/>
<g>
</g>
<g>
</g>
<g>
</g>
<g>
</g>
<g>
</g>
<g>
</g>
<g>
</g>
<g>
</g>
<g>
</g>
<g>
</g>
<g>
</g>
<g>
</g>
<g>
</g>
<g>
</g>
<g>
</g>
</svg>
