<svg id="Layer_3" enable-background="new 0 0 64 64" height="512" viewBox="0 0 64 64" width="512" xmlns="http://www.w3.org/2000/svg"><path d="m54 33.738v-24.738c0-3.866-3.134-7-7-7-3.866 0-7 3.134-7 7v24.738c-4.923 2.604-8.227 7.862-7.988 13.873.305 7.676 6.603 14.018 14.276 14.373 8.608.397 15.712-6.464 15.712-14.984 0-5.755-3.244-10.746-8-13.262z" fill="#3d98f7"/><circle cx="47" cy="47" fill="#c7e2fc" r="11"/><path d="m28 20c-.028 0-.053.008-.081.008.048-.33.081-.665.081-1.008 0-3.866-3.134-7-7-7s-7 3.134-7 7c0 .343.033.678.081 1.008-.028 0-.053-.008-.081-.008-2.209 0-4 1.791-4 4s1.791 4 4 4c1.782 0 3.274-1.173 3.791-2.783.962.497 2.051.783 3.209.783s2.247-.286 3.209-.783c.517 1.61 2.009 2.783 3.791 2.783 2.209 0 4-1.791 4-4s-1.791-4-4-4z" fill="#a1cdfb"/><path d="m20 10c-.028 0-.053.008-.081.008.048-.33.081-.665.081-1.008 0-3.866-3.134-7-7-7s-7 3.134-7 7c0 .343.033.678.081 1.008-.028 0-.053-.008-.081-.008-2.209 0-4 1.791-4 4s1.791 4 4 4c1.782 0 3.274-1.173 3.791-2.783.962.497 2.051.783 3.209.783s2.247-.286 3.209-.783c.517 1.61 2.009 2.783 3.791 2.783 2.209 0 4-1.791 4-4s-1.791-4-4-4z" fill="#c7e2fc"/><path d="m47.009 63c-.255 0-.51-.006-.767-.018-8.213-.379-14.903-7.114-15.229-15.332-.239-6.013 2.808-11.514 7.987-14.502v-24.148c0-4.411 3.589-8 8-8s8 3.589 8 8v24.149c4.95 2.86 8 8.113 8 13.851 0 4.414-1.759 8.524-4.952 11.574-3.006 2.87-6.902 4.426-11.039 4.426zm-.009-60c-3.309 0-6 2.691-6 6v24.738c0 .371-.205.711-.532.884-4.815 2.547-7.672 7.509-7.457 12.949.286 7.189 6.138 13.081 13.324 13.413 3.866.175 7.539-1.191 10.332-3.857 2.794-2.668 4.333-6.265 4.333-10.127 0-5.198-2.861-9.941-7.468-12.378-.327-.173-.532-.513-.532-.884v-24.738c0-3.309-2.691-6-6-6z"/><path d="m47 59v-2c5.514 0 10-4.486 10-10h2c0 6.617-5.383 12-12 12z"/><path d="m37 47h-2c0-6.28 4.85-11.449 11-11.958v-30.042h2v31c0 .552-.448 1-1 1-5.514 0-10 4.486-10 10z"/><path d="m48 54c-2.206 0-4-1.794-4-4v-4c0-2.206 1.794-4 4-4s4 1.794 4 4h-2c0-1.103-.897-2-2-2s-2 .897-2 2v4c0 1.103.897 2 2 2s2-.897 2-2h2c0 2.206-1.794 4-4 4z"/><path d="m42 40h2v2h-2z"/><path d="m20 19c-1.797 0-3.415-.959-4.296-2.472-1.73.627-3.678.627-5.408 0-.881 1.513-2.499 2.472-4.296 2.472-2.757 0-5-2.243-5-5 0-2.415 1.721-4.436 4.001-4.9-.001-.033-.001-.067-.001-.1 0-4.411 3.589-8 8-8s8 3.589 8 8c0 .033 0 .067-.001.1 2.28.464 4.001 2.485 4.001 4.9 0 2.757-2.243 5-5 5zm-3.791-4.783c.129 0 .259.025.381.076.272.112.481.338.571.619.401 1.249 1.542 2.088 2.839 2.088 1.654 0 3-1.346 3-3 0-1.639-1.321-2.975-2.955-3-.048.005-.096.007-.126.008-.287 0-.56-.123-.75-.338-.194-.22-.281-.514-.24-.804.049-.335.071-.61.071-.866 0-3.309-2.691-6-6-6s-6 2.691-6 6c0 .256.022.531.07.866.042.29-.046.584-.24.804s-.436.347-.768.338c-.027 0-.07-.004-.109-.008-1.633.025-2.953 1.361-2.953 3 0 1.654 1.346 3 3 3 1.297 0 2.438-.839 2.839-2.089.09-.28.299-.506.571-.619s.581-.099.841.036c1.723.891 3.776.891 5.499 0 .143-.074.301-.111.459-.111z"/><path d="m28 29c-1.797 0-3.415-.959-4.296-2.472-1.73.627-3.678.627-5.408 0-.881 1.513-2.499 2.472-4.296 2.472-2.757 0-5-2.243-5-5 0-2.415 1.721-4.436 4.001-4.9-.001-.033-.001-.067-.001-.1 0-1.332.334-2.65.966-3.813l1.758.954c-.474.871-.724 1.86-.724 2.859 0 .256.022.531.07.866.042.29-.046.584-.24.804s-.441.34-.768.338c-.027 0-.07-.004-.109-.008-1.633.025-2.953 1.361-2.953 3 0 1.654 1.346 3 3 3 1.297 0 2.438-.839 2.839-2.089.09-.28.299-.506.571-.619s.58-.099.841.036c1.723.891 3.776.891 5.499 0 .261-.135.569-.149.841-.036.272.112.481.338.571.619.4 1.25 1.541 2.089 2.838 2.089 1.654 0 3-1.346 3-3 0-1.639-1.321-2.975-2.955-3-.049.004-.097.008-.126.008-.287 0-.56-.123-.75-.338-.194-.22-.281-.514-.24-.804.049-.335.071-.61.071-.866 0-2.415-1.437-4.584-3.661-5.527l.78-1.842c2.965 1.257 4.881 4.149 4.881 7.369 0 .04 0 .079-.001.119 2.313.484 4.001 2.488 4.001 4.881 0 2.757-2.243 5-5 5z"/><path d="m35 7h9v2h-9z"/><path d="m35 11h9v2h-9z"/><path d="m35 15h9v2h-9z"/><path d="m35 19h9v2h-9z"/><path d="m35 23h9v2h-9z"/><path d="m35 27h9v2h-9z"/><path d="m17 63c-2.757 0-5-2.243-5-5h2c0 1.654 1.346 3 3 3s3-1.346 3-3-1.346-3-3-3h-16v-2h16c2.757 0 5 2.243 5 5s-2.243 5-5 5z"/><path d="m23 51h-22v-2h22c2.206 0 4-1.794 4-4s-1.794-4-4-4-4 1.794-4 4h-2c0-3.309 2.691-6 6-6s6 2.691 6 6-2.691 6-6 6z"/></svg>