<svg height="512pt" viewBox="-36 0 512 512" width="512pt" xmlns="http://www.w3.org/2000/svg"><path d="m134.523438 15h170v196h-170zm0 0" fill="#cdd7d7"/><path d="m219.523438 15h85v196h-85zm0 0" fill="#abb1b1"/><path d="m304.523438 190.867188 123.8125 207.734374c13.992187 23.476563 14.285156 51.679688.785156 75.445313s-37.878906 37.953125-65.210938 37.953125h-288.777344c-27.332031 0-51.710937-14.1875-65.210937-37.953125-13.503906-23.765625-13.207031-51.96875.785156-75.445313l123.816407-207.734374zm0 0" fill="#ff5036"/><path d="m428.335938 398.601562-123.8125-207.734374h-85v321.132812h144.386718c27.332032 0 51.710938-14.1875 65.210938-37.953125 13.503906-23.765625 13.207031-51.96875-.785156-75.445313zm0 0" fill="#e62300"/><path d="m224.523438 75c0 8.285156 6.714843 15 15 15h65v-30h-65c-8.285157 0-15 6.714844-15 15zm0 0" fill="#46465a"/><path d="m244.523438 135c0 8.285156 6.714843 15 15 15h45v-30h-45c-8.285157 0-15 6.714844-15 15zm0 0" fill="#46465a"/><path d="m193.269531 455.003906c-1.75 0-3.527343-.308594-5.265625-.957031-7.757812-2.910156-11.6875-11.558594-8.777344-19.3125l52.5-140c2.90625-7.757813 11.554688-11.6875 19.3125-8.78125 7.757813 2.910156 11.6875 11.558594 8.777344 19.3125l-52.5 140c-2.257812 6.023437-7.972656 9.738281-14.046875 9.738281zm0 0" fill="#feef55"/><path d="m289.523438 420c-3.839844 0-7.679688-1.464844-10.609376-4.394531-5.855468-5.855469-5.855468-15.355469 0-21.210938l24.394532-24.394531-24.394532-24.394531c-5.855468-5.855469-5.855468-15.355469 0-21.210938 5.859376-5.859375 15.355469-5.859375 21.214844 0l35 35c5.855469 5.855469 5.855469 15.351563 0 21.210938l-35 35c-2.929687 2.929687-6.769531 4.394531-10.605468 4.394531zm0 0" fill="#fedc00"/><path d="m149.523438 420c-3.839844 0-7.679688-1.464844-10.609376-4.394531l-35-35c-5.855468-5.855469-5.855468-15.355469 0-21.210938l35-35c5.859376-5.859375 15.355469-5.859375 21.214844 0 5.859375 5.855469 5.859375 15.351563 0 21.210938l-24.394531 24.394531 24.394531 24.394531c5.859375 5.855469 5.859375 15.355469 0 21.210938-2.929687 2.929687-6.769531 4.394531-10.605468 4.394531zm0 0" fill="#feef55"/><path d="m251.039062 285.953125c-7.757812-2.90625-16.402343 1.023437-19.3125 8.78125l-12.203124 32.546875v85.4375l40.292968-107.453125c2.910156-7.753906-1.023437-16.402344-8.777344-19.3125zm0 0" fill="#fedc00"/><path d="m319.523438 30h-200c-8.285157 0-15-6.714844-15-15s6.714843-15 15-15h200c8.28125 0 15 6.714844 15 15s-6.71875 15-15 15zm0 0" fill="#e6f0f0"/><path d="m319.523438 0h-100v30h100c8.28125 0 15-6.714844 15-15s-6.71875-15-15-15zm0 0" fill="#cdd7d7"/></svg>