<svg id="Layer_3" enable-background="new 0 0 64 64" height="512" viewBox="0 0 64 64" width="512" xmlns="http://www.w3.org/2000/svg"><path d="m48 30v-20h-8v-8h-38v60h46" fill="#4d5d7a"/><path d="m2 48.794c2.379.78 4.894 1.206 7.5 1.206 14.636 0 26.5-13.208 26.5-29.5 0-7.007-2.199-13.439-5.864-18.5h-28.136z" fill="#8892a0"/><path d="m44 19h-38c-.553 0-1 .448-1 1v6 32c0 .553.447 1 1 1h31.417v-2h-18.417v-6h12v-2h-12v-6h13v-2h-13v-6h18.417v-2h-4.417v-6h10v4h2v-5-6c0-.552-.447-1-1-1zm-27 38h-10v-6h10zm0-8h-10v-6h10zm0-8h-10v-6h10zm0-8h-10v-6h10zm14 0h-12v-6h12zm-24-8v-4h36v4z" fill="#c7e2fc"/><path d="m5 5h22v2h-22z" fill="#c7e2fc"/><path d="m5 9h22v2h-22z" fill="#c7e2fc"/><path d="m5 13h32v2h-32z" fill="#c7e2fc"/><circle cx="46" cy="46" fill="#78b75b" r="16"/><circle cx="46" cy="46" fill="#fff" r="12"/><g fill="#8892a0"><path d="m40 2v8h8z"/><path d="m45 37h2v-2.95c-.331-.027-.662-.05-1-.05s-.669.023-1 .05z"/><path d="m47 55h-2v2.95c.331.027.662.05 1 .05s.669-.023 1-.05z"/><path d="m37 47v-2h-2.95c-.027.331-.05.662-.05 1s.023.669.05 1z"/><path d="m55 45v2h2.95c.027-.331.05-.662.05-1s-.023-.669-.05-1z"/><path d="m36.841 38.255 2.452 2.452 1.414-1.414-2.452-2.452c-.509.432-.982.905-1.414 1.414z"/><path d="m55.159 53.745-2.452-2.452-1.414 1.414 2.452 2.452c.509-.432.982-.905 1.414-1.414z"/><path d="m53.745 36.841-2.452 2.452 1.414 1.414 2.452-2.452c-.432-.509-.905-.982-1.414-1.414z"/><path d="m36.841 53.745c.431.51.904.983 1.414 1.414l2.452-2.452-1.414-1.414z"/><path d="m49.293 50.707-4-4c-.188-.187-.293-.441-.293-.707v-7h2v6.586l3.707 3.707z"/></g></svg>