<?xml version="1.0" encoding="iso-8859-1"?>
<!-- Generator: Adobe Illustrator 22.0.0, SVG Export Plug-In . SVG Version: 6.00 Build 0)  -->
<svg xmlns="http://www.w3.org/2000/svg" xmlns:xlink="http://www.w3.org/1999/xlink" version="1.1" x="0px" y="0px" viewBox="0 0 60 59" style="enable-background:new 0 0 60 59;" xml:space="preserve" width="512" height="512">
<g id="_x31_6-Locked_House">
	<polygon style="fill:#BE6E41;" points="50.03,19.493 50.03,6 44.03,6 44.03,14  "/>
	<polygon style="fill:#E7ECED;" points="30,3.572 7,24.982 7,58 23.03,58 37.03,58 53,58 53,25  "/>
	<path style="fill:#366DB6;" d="M55.59,28.842L30,5L4.41,28.821c-0.787,0.768-2.044,0.76-2.822-0.017l0,0   c-0.786-0.786-0.784-2.062,0.006-2.845L30.03,0l28.376,25.98c0.79,0.783,0.793,2.059,0.006,2.845l0,0   C57.635,29.602,56.377,29.61,55.59,28.842z"/>
	<path style="fill:#426D5F;" d="M59,59H1c-0.552,0-1-0.448-1-1s0.448-1,1-1h58c0.552,0,1,0.448,1,1S59.552,59,59,59z"/>
	<path style="fill:#AFB6BB;" d="M30,17c-4.971,0-9,4.029-9,9v6h4v-6c0-2.761,2.239-5,5-5s5,2.239,5,5v6h4v-6   C39,21.029,34.971,17,30,17z"/>
	<rect x="18" y="31" style="fill:#212F3F;" width="24" height="19"/>
	<rect x="18" y="48" style="fill:#EBBA16;" width="24" height="4"/>
	<path style="fill:#54667A;" d="M33,38c0-1.834-1.645-3.283-3.539-2.953c-1.212,0.211-2.203,1.209-2.414,2.421   c-0.191,1.098,0.224,2.096,0.953,2.753V42c0,1.105,0.895,2,2,2h0c1.105,0,2-0.895,2-2v-1.779C32.61,39.672,33,38.885,33,38z"/>
</g>

</svg>
