<?xml version="1.0" encoding="iso-8859-1"?>
<!-- Generator: Adobe Illustrator 19.0.0, SVG Export Plug-In . SVG Version: 6.00 Build 0)  -->
<svg xmlns="http://www.w3.org/2000/svg" xmlns:xlink="http://www.w3.org/1999/xlink" version="1.1" id="Layer_1" x="0px" y="0px" viewBox="0 0 485.61 485.61" style="enable-background:new 0 0 485.61 485.61;" xml:space="preserve" width="512" height="512">
<g>
	<path style="fill:#FFE6B9;" d="M474.965,192.94v277.67c0,8.28-6.71,15-15,15H25.645c-8.29,0-15-6.72-15-15V192.94   c0-4.5,2.01-8.76,5.49-11.6L233.295,3.4c2.77-2.27,6.14-3.4,9.51-3.4s6.74,1.13,9.51,3.4l217.16,177.94   C472.955,184.18,474.965,188.44,474.965,192.94z"/>
	<path style="fill:#FFCD76;" d="M474.965,192.94v277.67c0,8.28-6.71,15-15,15h-217.16V0c3.37,0,6.74,1.13,9.51,3.4l217.16,177.94   C472.955,184.18,474.965,188.44,474.965,192.94z"/>
	<path style="fill:#5691ED;" d="M103.596,305.335h20.715c7.651,0,13.875,6.225,13.875,13.875c0,8.284,6.716,15,15,15s15-6.716,15-15   c0-24.193-19.683-43.875-43.875-43.875h-20.715c-26.316,0-47.726,21.41-47.726,47.726s21.41,47.726,47.726,47.726h16.865   c9.774,0,17.726,7.952,17.726,17.726s-7.952,17.726-17.726,17.726h-20.234c-7.917,0-14.357-6.44-14.357-14.357   c0-8.284-6.716-15-15-15s-15,6.716-15,15c0,24.458,19.898,44.357,44.357,44.357h20.234c26.316,0,47.726-21.41,47.726-47.726   c0-26.316-21.41-47.726-47.726-47.726h-16.865c-9.774,0-17.726-7.952-17.726-17.726S93.822,305.335,103.596,305.335z"/>
	<path style="fill:#5691ED;" d="M255.625,275.34h-25.64c-23.9,0-43.34,19.43-43.34,43.33v74.23c0,23.9,19.44,43.34,43.34,43.34   h25.64c23.9,0,43.34-19.44,43.34-43.34v-74.23C298.965,294.77,279.525,275.34,255.625,275.34z M268.965,392.9   c0,7.36-5.98,13.34-13.34,13.34h-25.64c-7.36,0-13.34-5.98-13.34-13.34v-74.23c0-7.35,5.98-13.33,13.34-13.33h25.64   c7.36,0,13.34,5.98,13.34,13.33V392.9z"/>
	<path style="fill:#2674D9;" d="M298.965,318.67v74.23c0,23.9-19.44,43.34-43.34,43.34h-12.82v-30h12.82   c7.36,0,13.34-5.98,13.34-13.34v-74.23c0-7.35-5.98-13.33-13.34-13.33h-12.82v-30h12.82   C279.525,275.34,298.965,294.77,298.965,318.67z"/>
	<path style="fill:#2674D9;" d="M382.014,340.786h-16.865c-9.774,0-17.726-7.952-17.726-17.726s7.952-17.726,17.726-17.726h20.715   c7.651,0,13.875,6.225,13.875,13.875c0,8.284,6.716,15,15,15s15-6.716,15-15c0-24.193-19.683-43.875-43.875-43.875h-20.715   c-26.316,0-47.726,21.41-47.726,47.726s21.41,47.726,47.726,47.726h16.865c9.774,0,17.726,7.952,17.726,17.726   s-7.952,17.726-17.726,17.726H361.78c-7.917,0-14.357-6.44-14.357-14.357c0-8.284-6.716-15-15-15s-15,6.716-15,15   c0,24.458,19.898,44.357,44.357,44.357h20.234c26.316,0,47.726-21.41,47.726-47.726C429.74,362.196,408.33,340.786,382.014,340.786   z"/>
	<path style="fill:#5691ED;" d="M297.835,192.24c-5.57,6.14-15.05,6.61-21.19,1.04c-9.33-8.45-21.58-12.68-33.84-12.68   s-24.51,4.229-33.84,12.68c-6.14,5.57-15.63,5.1-21.19-1.04c-5.56-6.13-5.1-15.62,1.04-21.18c14.5-13.14,33.67-20.38,53.99-20.38   s39.49,7.24,53.99,20.38C302.935,176.62,303.395,186.11,297.835,192.24z"/>
	<path style="fill:#2674D9;" d="M296.795,171.06c6.14,5.56,6.6,15.05,1.04,21.18c-5.57,6.14-15.05,6.61-21.19,1.04   c-9.33-8.45-21.58-12.68-33.84-12.68v-29.92C263.125,150.68,282.295,157.92,296.795,171.06z"/>
	<path style="fill:#5691ED;" d="M326.565,145.96c-5.56,6.14-15.05,6.6-21.18,1.04c-17.26-15.64-39.92-23.46-62.58-23.46   s-45.32,7.82-62.58,23.46c-6.13,5.56-15.62,5.1-21.18-1.04c-5.57-6.14-5.1-15.62,1.03-21.19c22.18-20.1,51.55-31.16,82.73-31.16   s60.55,11.06,82.73,31.16C331.665,130.34,332.135,139.82,326.565,145.96z"/>
	<path style="fill:#2674D9;" d="M326.565,145.96c-5.56,6.14-15.05,6.6-21.18,1.04c-17.26-15.64-39.92-23.46-62.58-23.46V93.61   c31.18,0,60.55,11.06,82.73,31.16C331.665,130.34,332.135,139.82,326.565,145.96z"/>
	<path style="fill:#5691ED;" d="M267.145,226.28c0,8.28-6.71,15-15,15h-18.68c-8.29,0-15-6.72-15-15c0-8.29,6.71-15,15-15h18.68   C260.435,211.28,267.145,217.99,267.145,226.28z"/>
	<path style="fill:#2674D9;" d="M252.145,241.28h-9.34v-30h9.34c8.29,0,15,6.71,15,15C267.145,234.56,260.435,241.28,252.145,241.28   z"/>
</g>















</svg>
