<svg height="512pt" viewBox="0 -2 512 512" width="512pt" xmlns="http://www.w3.org/2000/svg"><path d="m3.109375 508.863281h505.78125c1.714844 0 3.105469-1.394531 3.105469-3.109375v-502.648437c0-1.714844-1.390625-3.105469-3.105469-3.105469h-505.78125c-1.714844 0-3.10546875 1.390625-3.10546875 3.105469v502.648437c0 1.714844 1.39062475 3.109375 3.10546875 3.109375zm0 0" fill="#954c35"/><path d="m481.664062 345.070312v96.304688c0 2.859375-2.320312 5.179688-5.179687 5.179688h-440.96875c-2.859375 0-5.179687-2.320313-5.179687-5.179688v-96.304688zm0 0" fill="#44bfd7"/><path d="m481.664062 345.070312v96.304688c0 2.859375-2.320312 5.179688-5.179687 5.179688h-410.453125c-2.859375 0-5.179688-2.320313-5.179688-5.179688v-96.304688zm0 0" fill="#7cd2e3"/><g fill="#def4f8"><path d="m351.046875 380.457031c-3.347656-2.6875-8.238281-2.148437-10.921875 1.199219l-29.828125 37.1875c-2.683594 3.347656-2.144531 8.234375 1.199219 10.921875 1.433594 1.148437 3.152344 1.707031 4.855468 1.707031 2.277344 0 4.53125-.996094 6.066407-2.910156l29.828125-37.1875c2.683594-3.347656 2.148437-8.234375-1.199219-10.917969zm0 0"/><path d="m394.4375 361.863281c-3.347656-2.6875-8.238281-2.148437-10.921875 1.199219l-29.828125 37.1875c-2.683594 3.347656-2.144531 8.234375 1.203125 10.921875 1.429687 1.148437 3.148437 1.707031 4.855469 1.707031 2.273437 0 4.527344-.996094 6.0625-2.910156l29.828125-37.1875c2.683593-3.347656 2.148437-8.234375-1.199219-10.917969zm0 0"/><path d="m153.285156 366.429688c-3.238281-2.8125-8.144531-2.464844-10.957031.777343l-40.816406 47.027344c-2.8125 3.242187-2.464844 8.148437.773437 10.960937 1.46875 1.273438 3.285156 1.902344 5.089844 1.902344 2.171875 0 4.332031-.90625 5.867188-2.679687l40.820312-47.027344c2.808594-3.242187 2.464844-8.148437-.777344-10.960937zm0 0"/><path d="m194.816406 380.457031c-3.34375-2.6875-8.234375-2.148437-10.917968 1.199219l-14.914063 18.59375c-2.683594 3.347656-2.148437 8.238281 1.199219 10.921875 1.433594 1.148437 3.148437 1.707031 4.855468 1.707031 2.277344 0 4.53125-.996094 6.066407-2.910156l14.910156-18.59375c2.6875-3.347656 2.148437-8.234375-1.199219-10.917969zm0 0"/><path d="m443.515625 399.050781c-3.347656-2.683593-8.238281-2.144531-10.921875 1.199219l-14.914062 18.59375c-2.683594 3.347656-2.144532 8.234375 1.199218 10.921875 1.433594 1.148437 3.152344 1.707031 4.855469 1.707031 2.277344 0 4.53125-.996094 6.066406-2.910156l14.914063-18.59375c2.683594-3.34375 2.144531-8.234375-1.199219-10.917969zm0 0"/><path d="m112.238281 366.238281c-3.347656-2.683593-8.234375-2.148437-10.921875 1.199219l-14.914062 18.59375c-2.683594 3.347656-2.144532 8.234375 1.199218 10.921875 1.433594 1.148437 3.152344 1.707031 4.855469 1.707031 2.277344 0 4.53125-.996094 6.066407-2.910156l14.914062-18.59375c2.683594-3.34375 2.148438-8.234375-1.199219-10.917969zm0 0"/></g><path d="m512 3.113281v40.019531h-512v-40.019531c0-1.71875 1.398438-3.10937475 3.105469-3.10937475h505.789062c1.707031 0 3.105469 1.39062475 3.105469 3.10937475zm0 0" fill="#c97e67"/><path d="m.00390625 43.132812h511.99218775v43.136719h-511.99218775zm0 0" fill="#c0694e"/><path d="m.00390625 86.269531h511.99218775v43.132813h-511.99218775zm0 0" fill="#c97e67"/><path d="m.00390625 129.402344h511.99218775v43.132812h-511.99218775zm0 0" fill="#c0694e"/><path d="m.00390625 172.535156h511.99218775v43.136719h-511.99218775zm0 0" fill="#c97e67"/><path d="m.00390625 215.671875h511.99218775v43.132813h-511.99218775zm0 0" fill="#c0694e"/><path d="m.00390625 258.804688h511.99218775v43.132812h-511.99218775zm0 0" fill="#c97e67"/><path d="m.00390625 301.9375h511.99218775v43.136719h-511.99218775zm0 0" fill="#c0694e"/><path d="m458.917969.00390625v379.74609375c0 4.285156-3.480469 7.765625-7.769531 7.765625-4.296876 0-7.769532-3.480469-7.769532-7.765625v-379.74609375zm0 0" fill="#ffe7c0"/><path d="m68.621094.00390625v379.74609375c0 4.285156-3.472656 7.765625-7.769532 7.765625-4.289062 0-7.769531-3.480469-7.769531-7.765625v-379.74609375zm0 0" fill="#ffe7c0"/><path d="m264.167969 345.074219h42.46875v101.480469h-42.46875zm0 0" fill="#44bfd7"/><path d="m234.765625 345.070312h42.46875v101.484376h-42.46875zm0 0" fill="#7c3f2c"/></svg>